<?xml version="1.0" encoding="UTF-8" standalone="no"?>
<svg
   xmlns:dc="http://purl.org/dc/elements/1.1/"
   xmlns:cc="http://creativecommons.org/ns#"
   xmlns:rdf="http://www.w3.org/1999/02/22-rdf-syntax-ns#"
   xmlns:svg="http://www.w3.org/2000/svg"
   xmlns="http://www.w3.org/2000/svg"
   xmlns:sodipodi="http://sodipodi.sourceforge.net/DTD/sodipodi-0.dtd"
   xmlns:inkscape="http://www.inkscape.org/namespaces/inkscape"
   width="793.7007874015749"
   height="1122.5196850393702"
   id="svg2"
   version="1.1"
   inkscape:version="0.91 r13725"
   sodipodi:docname="num4.svg">
  <defs
     id="defs23" />
  <sodipodi:namedview
     pagecolor="#ffffff"
     bordercolor="#666666"
     borderopacity="1"
     objecttolerance="10"
     gridtolerance="10"
     guidetolerance="10"
     inkscape:pageopacity="0"
     inkscape:pageshadow="2"
     inkscape:window-width="1536"
     inkscape:window-height="803"
     id="namedview21"
     showgrid="false"
     inkscape:zoom="0.59465222"
     inkscape:cx="253.81628"
     inkscape:cy="638.93367"
     inkscape:window-x="-8"
     inkscape:window-y="-8"
     inkscape:window-maximized="1"
     inkscape:current-layer="svg2" />
  <title
     id="title4">Number One (gray)</title>
  <metadata
     id="metadata4">image/svg+xml<rdf:RDF>
  <cc:Work
     rdf:about="">
    <dc:format>image/svg+xml</dc:format>
    <dc:type
       rdf:resource="http://purl.org/dc/dcmitype/StillImage" />
  </cc:Work>
</rdf:RDF>
</metadata>
  <g
     id="g7"
     transform="matrix(0.43488511,0,0,0.51948313,315.04317,18.006786)">
    <title
       id="title9">Layer 1</title>
    <g
       id="layer1">
      <path
         stroke-miterlimit="4"
         id="path2383"
         d="m -239.00609,881.21426 c 310.610739,-31.54503 735.06507,36.90561 798.13912,-29.85481 37.67014,-15.88239 28.01523,-106.68084 -28.90522,-99.90294 -76.27329,11.71826 -332.37425,7.64809 -594.479775,13.05166 l 230.193275,-489.83323 29.18287,525.93712 0.64883,169.90717 1e-5,207.32747 131.40055,-3.0793 3.28019,-156.6037 L 327.82145,903.68264 310.55786,316.66858 302.8748,82.123926 170.62543,86.773238 Z"
         inkscape:connector-curvature="0"
         style="fill:#10bded;fill-rule:evenodd;stroke:#04045b;stroke-width:11.02762699;stroke-miterlimit:4"
         sodipodi:nodetypes="ccccccccccccccc" />
      <path
         stroke-miterlimit="4"
         d="M 527.29047,171.10988"
         id="path3157"
         inkscape:connector-curvature="0"
         style="fill:#10bded;stroke:#04045b;stroke-width:3;stroke-miterlimit:4;stroke-dashoffset:0" />
      <path
         stroke-miterlimit="4"
         d="M 504.75149,174.39069"
         id="path3196"
         inkscape:connector-curvature="0"
         style="fill:#10bded;stroke:#04045b;stroke-width:2;stroke-miterlimit:4;stroke-dashoffset:0" />
      <path
         d="M 480.62689,174.38985"
         id="path3198"
         inkscape:connector-curvature="0"
         style="fill:#10bded;stroke:#04045b" />
      <path
         d="M 485.15024,164.58896"
         id="path3200"
         inkscape:connector-curvature="0"
         style="fill:#10bded;stroke:#04045b" />
      <path
         stroke-miterlimit="4"
         d="M 373.35968,81.838226"
         id="path3155"
         inkscape:connector-curvature="0"
         style="fill:#10bded;stroke:#04045b;stroke-width:3;stroke-miterlimit:4;stroke-dashoffset:0" />
      <path
         stroke-miterlimit="4"
         d="M 351.58777,70.021606"
         id="path3183"
         inkscape:connector-curvature="0"
         style="fill:#10bded;stroke:#04045b;stroke-width:2;stroke-miterlimit:4;stroke-dashoffset:0" />
      <path
         d="M 333.7023,70.021004"
         id="path3185"
         inkscape:connector-curvature="0"
         style="fill:#10bded;stroke:#04045b" />
      <path
         d="M 337.05582,62.754799"
         id="path3187"
         inkscape:connector-curvature="0"
         style="fill:#10bded;stroke:#04045b" />
    </g>
    <path
       style="opacity:1;fill:#10bded;fill-opacity:1;fill-rule:evenodd;stroke:none;stroke-width:6.72662067;stroke-linecap:butt;stroke-linejoin:round;stroke-miterlimit:4;stroke-dasharray:none;stroke-dashoffset:0;stroke-opacity:0.65088752"
       d="m 329.10924,516.76048 -24.80442,-0.51393 0,-28.54319 0,-28.54318 31.95145,0 31.95145,0 0,24.1738 c 0,13.29558 0.47297,26.53862 1.05104,29.42896 l 1.05103,5.25517 -8.19807,-0.37185 c -4.50894,-0.20452 -19.36005,-0.60312 -33.00248,-0.88578 z"
       id="path5651"
       inkscape:connector-curvature="0"
       transform="matrix(1.8314909,0,0,1.8310702,-356.2097,-73.39184)" />
    <path
       style="opacity:1;fill:#10bded;fill-opacity:1;fill-rule:evenodd;stroke:none;stroke-width:4;stroke-linecap:butt;stroke-linejoin:round;stroke-miterlimit:4;stroke-dasharray:none;stroke-dashoffset:0;stroke-opacity:1"
       id="path5784"
       d="m 261.66604,745.24246 c -0.20199,5.19661 -0.11391,10.38799 -0.41873,15.57984 0,0 -40.6356,20.2011 -40.6356,20.2011 l 0,0 c 0.70892,-4.99443 0.55093,-9.99347 0.31808,-15.02955 0,0 40.73625,-20.75139 40.73625,-20.75139 z"
       inkscape:connector-curvature="0" />
    <path
       style="opacity:1;fill:#10bded;fill-opacity:1;fill-rule:evenodd;stroke:none;stroke-width:4;stroke-linecap:butt;stroke-linejoin:round;stroke-miterlimit:4;stroke-dasharray:none;stroke-dashoffset:0;stroke-opacity:1"
       id="path5786"
       d="m 295.73668,738.75069 c 1.41201,10.30113 3.15205,20.5458 4.33712,30.88924 0.71838,6.36918 1.13382,12.76304 1.03869,19.17026 0,0 -40.50215,20.33532 -40.50215,20.33532 l 0,0 c 0.65959,-6.22751 0.0945,-12.4359 -0.39894,-18.66886 -0.98476,-10.21798 -2.62469,-20.29082 -4.8568,-30.30793 0,0 40.38208,-21.41803 40.38208,-21.41803 z"
       inkscape:connector-curvature="0" />
    <path
       style="opacity:1;fill:#10bded;fill-opacity:1;fill-rule:evenodd;stroke:none;stroke-width:4;stroke-linecap:butt;stroke-linejoin:round;stroke-miterlimit:4;stroke-dasharray:none;stroke-dashoffset:0;stroke-opacity:1"
       id="path5788"
       d="m 298.81661,735.67145 c 1.01205,7.88868 1.81686,15.79626 2.33092,23.73269 0.27504,6.52763 0.65646,13.07693 0.34095,19.60869 0,0 -40.99869,20.12101 -40.99869,20.12101 l 0,0 c 1.68612,-6.04349 -0.007,-12.71076 0.34386,-18.90954 -0.36238,-7.7461 -0.87868,-15.51559 -2.39912,-23.13482 0,0 40.38208,-21.41803 40.38208,-21.41803 z"
       inkscape:connector-curvature="0" />
    <path
       style="opacity:1;fill:#10bded;fill-opacity:1;fill-rule:evenodd;stroke:none;stroke-width:4;stroke-linecap:butt;stroke-linejoin:round;stroke-miterlimit:4;stroke-dasharray:none;stroke-dashoffset:0;stroke-opacity:1"
       id="path5790"
       d="m 317.10491,736.00478 c -0.28456,7.83315 -0.18872,15.67488 -0.15293,23.51162 0.0559,6.4017 0.31381,12.82247 -0.98492,19.12445 -0.78639,2.5221 -1.0387,5.08016 -1.11095,7.70095 0,0 -40.54547,20.79248 -40.54547,20.79248 l 0,0 c -0.2094,-2.95112 -0.28615,-5.83159 0.40624,-8.74148 1.80263,-6.03319 2.15715,-11.97261 1.80457,-18.28076 0.0355,-7.78476 0.13443,-15.57481 -0.15293,-23.35587 0,0 40.73626,-20.75139 40.73626,-20.75139 z"
       inkscape:connector-curvature="0" />
    <path
       style="opacity:1;fill:#10bded;fill-opacity:1;fill-rule:evenodd;stroke:none;stroke-width:4;stroke-linecap:butt;stroke-linejoin:round;stroke-miterlimit:4;stroke-dasharray:none;stroke-dashoffset:0;stroke-opacity:1"
       id="path5792"
       d="m 249.3463,723.68785 c -0.28454,7.83317 -0.18872,15.67489 -0.15293,23.51164 0.0359,6.65447 0.0537,13.30902 0.0632,19.96359 0.0881,0.81689 0.17619,1.63377 0.26439,2.45065 0,0 -40.34879,21.23781 -40.34879,21.23781 l 0,0 c -0.1575,-1.0095 -0.31496,-2.01899 -0.47243,-3.02848 0.009,-6.67601 0.0273,-13.352 0.0632,-20.02793 0.0355,-7.78476 0.13443,-15.57481 -0.15293,-23.35587 0,0 40.73626,-20.75141 40.73626,-20.75141 z"
       inkscape:connector-curvature="0" />
    <path
       style="opacity:1;fill:#10bded;fill-opacity:1;fill-rule:evenodd;stroke:none;stroke-width:4;stroke-linecap:butt;stroke-linejoin:round;stroke-miterlimit:4;stroke-dasharray:none;stroke-dashoffset:0;stroke-opacity:1"
       id="path5794"
       d="m 242.98367,733.26469 c -1.57031,7.66781 -2.18724,15.48463 -2.62697,23.28563 -0.58516,5.67531 -0.0745,11.2377 1.36214,16.7382 0,0 -40.29139,21.70157 -40.29139,21.70157 l 0,0 c -1.24882,-5.97982 -2.40567,-11.92801 -1.61439,-18.07043 0.43612,-7.88382 1.14761,-15.74334 2.10307,-23.58188 0,0 41.06754,-20.07309 41.06754,-20.07309 z"
       inkscape:connector-curvature="0" />
    <path
       style="opacity:1;fill:#10bded;fill-opacity:1;fill-rule:evenodd;stroke:none;stroke-width:4;stroke-linecap:butt;stroke-linejoin:round;stroke-miterlimit:4;stroke-dasharray:none;stroke-dashoffset:0;stroke-opacity:1"
       id="path5796"
       d="m 271.0972,738.75069 c 1.01204,7.88867 1.81684,15.79626 2.3309,23.73268 -0.43584,5.82784 -0.56165,11.57471 -0.2157,17.41398 0.224,3.89657 0.11942,1.93892 0.31361,5.87299 0,0 -40.49479,20.87242 -40.49479,20.87242 l 0,0 c -0.17912,-3.88223 -0.0789,-1.94756 -0.30044,-5.80403 -0.388,-5.88409 -0.98628,-11.72354 0.38344,-17.53521 -0.36236,-7.7461 -0.87868,-15.51557 -2.39913,-23.1348 0,0 40.38211,-21.41803 40.38211,-21.41803 z"
       inkscape:connector-curvature="0" />
    <path
       style="opacity:1;fill:#10bded;fill-opacity:1;fill-rule:evenodd;stroke:none;stroke-width:4;stroke-linecap:butt;stroke-linejoin:round;stroke-miterlimit:4;stroke-dasharray:none;stroke-dashoffset:0;stroke-opacity:1"
       id="path5798"
       d="m 249.14354,736.34393 c -0.88326,7.66243 -4.02271,14.68782 -6.43661,21.925 -0.24013,0.82742 -0.48028,1.65487 -0.72042,2.48229 0,0 -41.2855,19.42238 -41.2855,19.42238 l 0,0 c 0.30239,-0.84123 0.60479,-1.68246 0.90721,-2.52369 2.11749,-7.11884 5.9561,-13.72973 6.46778,-21.23289 0,0 41.06754,-20.07309 41.06754,-20.07309 z"
       inkscape:connector-curvature="0" />
    <path
       style="opacity:1;fill:#10bded;fill-opacity:1;fill-rule:evenodd;stroke:none;stroke-width:4;stroke-linecap:butt;stroke-linejoin:round;stroke-miterlimit:4;stroke-dasharray:none;stroke-dashoffset:0;stroke-opacity:1"
       id="path5800"
       d="m 239.90372,745.58161 c -0.85379,3.61898 -1.22855,7.27627 -1.4118,10.9778 0,0 -40.48073,20.49754 -40.48073,20.49754 l 0,0 c 0.007,-3.83629 0.26521,-7.60145 0.82501,-11.40225 0,0 41.06752,-20.07309 41.06752,-20.07309 z"
       inkscape:connector-curvature="0" />
    <path
       style="opacity:1;fill:#10bded;fill-opacity:1;fill-rule:evenodd;stroke:none;stroke-width:4;stroke-linecap:butt;stroke-linejoin:round;stroke-miterlimit:4;stroke-dasharray:none;stroke-dashoffset:0;stroke-opacity:1"
       id="path5802"
       d="m 237.02656,729.84631 c -0.21969,7.57433 -0.30452,15.1632 -0.0817,22.73868 0,0 -40.57298,20.66823 -40.57298,20.66823 l 0,0 c 0.21561,-7.54791 0.14634,-15.10899 -0.0817,-22.6555 0,0 40.73626,-20.75141 40.73626,-20.75141 z"
       inkscape:connector-curvature="0" />
    <path
       style="opacity:1;fill:#10bded;fill-opacity:1;fill-rule:evenodd;stroke:none;stroke-width:4;stroke-linecap:butt;stroke-linejoin:round;stroke-miterlimit:4;stroke-dasharray:none;stroke-dashoffset:0;stroke-opacity:1"
       id="path5804"
       d="m 307.86509,748.32169 c -0.81803,7.00859 0.67128,13.86732 1.41267,20.78926 0,0 -40.58797,20.85747 -40.58797,20.85747 l 0,0 c 0.32736,-6.95613 -2.27209,-13.86752 -1.56096,-20.89533 0,0 40.73626,-20.7514 40.73626,-20.7514 z"
       inkscape:connector-curvature="0" />
    <path
       style="opacity:1;fill:#10bded;fill-opacity:1;fill-rule:evenodd;stroke:none;stroke-width:4;stroke-linecap:butt;stroke-linejoin:round;stroke-miterlimit:4;stroke-dasharray:none;stroke-dashoffset:0;stroke-opacity:1"
       id="path5806"
       d="m 317.10491,757.55937 c -0.22092,6.31501 -0.26775,12.6399 -0.0989,18.95661 0,0 -40.53839,20.65059 -40.53839,20.65059 l 0,0 c 0.16337,-6.28317 0.12931,-12.57454 -0.0989,-18.85581 0,0 40.73626,-20.75139 40.73626,-20.75139 z"
       inkscape:connector-curvature="0" />
    <path
       style="opacity:1;fill:#10bded;fill-opacity:1;fill-rule:evenodd;stroke:none;stroke-width:4;stroke-linecap:butt;stroke-linejoin:round;stroke-miterlimit:4;stroke-dasharray:none;stroke-dashoffset:0;stroke-opacity:1"
       id="path5808"
       d="m 295.54535,859.17392 c -0.28454,7.83317 -0.18872,15.67489 -0.15293,23.51163 0.0299,5.6093 0.0472,11.21866 0.0586,16.82803 0,0 -40.54795,20.65546 -40.54795,20.65546 l 0,0 c 0.011,-5.62929 0.0289,-11.25859 0.0588,-16.88785 0.0353,-7.78476 0.13443,-15.57481 -0.15293,-23.35588 0,0 40.73626,-20.75139 40.73626,-20.75139 z"
       inkscape:connector-curvature="0" />
    <path
       style="opacity:1;fill:#10bded;fill-opacity:1;fill-rule:evenodd;stroke:none;stroke-width:4;stroke-linecap:butt;stroke-linejoin:round;stroke-miterlimit:4;stroke-dasharray:none;stroke-dashoffset:0;stroke-opacity:1"
       id="path5810"
       d="m 319.98207,859.51307 c -1.84871,6.973 -1.40122,14.05207 -0.86219,21.14476 0.54435,6.29203 0.77358,12.60274 0.90186,18.91486 0.0128,1.02833 0.0273,2.05668 0.0408,3.085 0,0 -40.54653,20.71122 -40.54653,20.71122 l 0,0 c -0.009,-1.02003 -0.0183,-2.04007 -0.0271,-3.0601 -0.089,-6.24144 -0.24545,-12.48413 -0.73192,-18.70949 -0.53959,-7.34856 -1.17442,-14.69921 0.15733,-22.01316 0,0 41.06754,-20.07309 41.06754,-20.07309 z"
       inkscape:connector-curvature="0" />
    <path
       style="opacity:1;fill:#10bded;fill-opacity:1;fill-rule:evenodd;stroke:none;stroke-width:4;stroke-linecap:butt;stroke-linejoin:round;stroke-miterlimit:4;stroke-dasharray:none;stroke-dashoffset:0;stroke-opacity:1"
       id="path5812"
       d="m 276.39381,850.90286 c -3.91155,7.12199 -6.08705,14.9378 -7.51825,22.88428 -1.41576,5.89557 -0.443,11.58335 0.52526,17.42095 0.79972,4.81752 1.06609,9.69504 1.26306,14.56691 0,0 -40.51301,20.82242 -40.51301,20.82242 l 0,0 c -0.14909,-4.68921 -0.33819,-9.38733 -1.04835,-14.03219 -1.01318,-6.29471 -2.40596,-12.47578 -0.98342,-18.86099 1.28225,-8.23899 3.34033,-16.31134 6.67181,-23.98323 0,0 41.6029,-18.81815 41.6029,-18.81815 z"
       inkscape:connector-curvature="0" />
    <path
       style="opacity:1;fill:#10bded;fill-opacity:1;fill-rule:evenodd;stroke:none;stroke-width:4;stroke-linecap:butt;stroke-linejoin:round;stroke-miterlimit:4;stroke-dasharray:none;stroke-dashoffset:0;stroke-opacity:1"
       id="path5814"
       d="m 249.3463,849.93624 c -0.28454,7.83317 -0.18872,15.67488 -0.15293,23.51162 0.41472,6.09318 -1.08607,12.01958 -1.99642,17.99112 -0.22646,2.47063 -0.65358,4.91463 -1.08462,7.35552 0,0 -41.04696,20.19652 -41.04696,20.19652 l 0,0 c 0.28053,-2.55535 1.25452,-4.80601 1.22998,-7.40999 0.7123,-5.87936 2.497,-11.60959 2.46749,-17.53751 0.0355,-7.78478 0.13444,-15.57483 -0.15293,-23.35589 0,0 40.73626,-20.75139 40.73626,-20.75139 z"
       inkscape:connector-curvature="0" />
    <path
       style="opacity:1;fill:#10bded;fill-opacity:1;fill-rule:evenodd;stroke:none;stroke-width:4;stroke-linecap:butt;stroke-linejoin:round;stroke-miterlimit:4;stroke-dasharray:none;stroke-dashoffset:0;stroke-opacity:1"
       id="path5820"
       d="m 249.3463,856.0947 c -0.32058,7.77038 -0.42194,15.5257 0.58172,23.24479 0,0 -40.14577,21.12929 -40.14577,21.12929 l 0,0 c -1.08578,-7.86315 -1.07389,-15.69341 -1.17221,-23.62269 0,0 40.73626,-20.75139 40.73626,-20.75139 z"
       inkscape:connector-curvature="0" />
    <path
       style="opacity:1;fill:#10bded;fill-opacity:1;fill-rule:evenodd;stroke:none;stroke-width:4;stroke-linecap:butt;stroke-linejoin:round;stroke-miterlimit:4;stroke-dasharray:none;stroke-dashoffset:0;stroke-opacity:1"
       id="path5822"
       d="m 240.1065,862.25315 c -0.43694,4.89965 -0.0696,9.7326 0.59216,14.58453 0,0 -40.16665,21.17485 -40.16665,21.17485 l 0,0 c -0.72589,-4.99152 -1.25281,-9.95345 -1.16177,-15.00799 0,0 40.73626,-20.75139 40.73626,-20.75139 z"
       inkscape:connector-curvature="0" />
    <path
       style="opacity:1;fill:#10bded;fill-opacity:1;fill-rule:evenodd;stroke:none;stroke-width:4;stroke-linecap:butt;stroke-linejoin:round;stroke-miterlimit:4;stroke-dasharray:none;stroke-dashoffset:0;stroke-opacity:1"
       id="path5824"
       d="m 252.00099,850.6022 c -2.79035,7.41684 -4.15891,15.23476 -5.08348,23.07214 -0.1022,1.18216 -0.20449,2.36432 -0.30672,3.54649 0,0 -40.62817,20.28229 -40.62817,20.28229 l 0,0 c 0.0941,-1.2287 0.18826,-2.4574 0.2824,-3.68609 0.8489,-8.03649 2.20632,-16.00013 4.37657,-23.79536 0,0 41.3594,-19.41947 41.3594,-19.41947 z"
       inkscape:connector-curvature="0" />
    <path
       style="opacity:1;fill:#10bded;fill-opacity:1;fill-rule:evenodd;stroke:none;stroke-width:4;stroke-linecap:butt;stroke-linejoin:round;stroke-miterlimit:4;stroke-dasharray:none;stroke-dashoffset:0;stroke-opacity:1"
       id="path5826"
       d="m 240.29782,864.99906 c 0.13681,1.17198 0.27209,2.34416 0.4106,3.51595 0.15751,1.33166 0.66795,5.93316 0.99346,7.43025 0.5352,2.46137 1.20342,2.59614 1.22437,2.5166 0.14047,-0.53312 -0.19145,-1.08588 -0.28718,-1.62881 -13.08512,7.20424 -26.10605,14.52625 -39.25537,21.61269 -0.36568,0.19706 0.66399,-0.54105 0.84723,-0.91376 0.28745,-0.58466 0.39643,-1.24379 0.5273,-1.88199 0.537,-2.61873 0.59088,-5.33808 0.72441,-7.99663 0,0 40.66859,-20.53421 40.66859,-20.53421 l 0,0 c -0.56401,26.00651 0.43727,13.21474 -41.05721,36.35416 -4.55116,-4.66927 -3.97897,-10.96811 -5.17828,-17.05622 0,0 40.38208,-21.41803 40.38208,-21.41803 z"
       inkscape:connector-curvature="0" />
    <path
       style="opacity:1;fill:#10bded;fill-opacity:1;fill-rule:evenodd;stroke:none;stroke-width:4;stroke-linecap:butt;stroke-linejoin:round;stroke-miterlimit:4;stroke-dasharray:none;stroke-dashoffset:0;stroke-opacity:1"
       id="path5828"
       d="m 246.26637,856.0947 c -0.22091,6.31501 -0.26774,12.63989 -0.0989,18.95659 0,0 -40.53838,20.65059 -40.53838,20.65059 l 0,0 c 0.16337,-6.28315 0.1293,-12.57453 -0.0989,-18.85579 0,0 40.73626,-20.75139 40.73626,-20.75139 z"
       inkscape:connector-curvature="0" />
    <path
       style="opacity:1;fill:#10bded;fill-opacity:1;fill-rule:evenodd;stroke:none;stroke-width:4;stroke-linecap:butt;stroke-linejoin:round;stroke-miterlimit:4;stroke-dasharray:none;stroke-dashoffset:0;stroke-opacity:1"
       id="path5830"
       d="m 245.84112,859.83989 c -1.69924,5.2146 -2.11548,10.73896 -2.37669,16.18515 0,0 -40.75549,20.39868 -40.75549,20.39868 l 0,0 c 0.53357,-5.72707 0.80859,-11.48388 1.77278,-17.16437 0,0 41.3594,-19.41946 41.3594,-19.41946 z"
       inkscape:connector-curvature="0" />
    <path
       style="opacity:1;fill:#10bded;fill-opacity:1;fill-rule:evenodd;stroke:none;stroke-width:4;stroke-linecap:butt;stroke-linejoin:round;stroke-miterlimit:4;stroke-dasharray:none;stroke-dashoffset:0;stroke-opacity:1"
       id="path5832"
       d="m 240.1065,865.33237 c -0.15311,4.55712 -0.12289,2.31836 -0.10018,6.71611 0,0 -40.53588,20.64931 -40.53588,20.64931 l 0,0 c 0.0225,-4.37509 0.0544,-2.17039 -0.10018,-6.61401 0,0 40.73626,-20.75141 40.73626,-20.75141 z"
       inkscape:connector-curvature="0" />
    <path
       style="opacity:1;fill:#10bded;fill-opacity:1;fill-rule:evenodd;stroke:none;stroke-width:4;stroke-linecap:butt;stroke-linejoin:round;stroke-miterlimit:4;stroke-dasharray:none;stroke-dashoffset:0;stroke-opacity:1"
       id="path5834"
       d="m 240.1065,849.93624 c -0.28456,7.83317 -0.18871,15.67488 -0.15293,23.51162 0.005,1.20255 0.011,2.40513 0.0165,3.60768 0,0 -40.46429,20.61285 -40.46429,20.61285 l 0,0 c 0.005,-1.20828 0.011,-2.41659 0.0165,-3.62487 0.0355,-7.78478 0.13443,-15.57483 -0.15293,-23.35589 0,0 40.73626,-20.75139 40.73626,-20.75139 z"
       inkscape:connector-curvature="0" />
    <path
       style="opacity:1;fill:#10bded;fill-opacity:1;fill-rule:evenodd;stroke:none;stroke-width:4;stroke-linecap:butt;stroke-linejoin:round;stroke-miterlimit:4;stroke-dasharray:none;stroke-dashoffset:0;stroke-opacity:1"
       id="path5836"
       d="m 304.97648,871.15752 c 0.40848,7.36032 2.5503,14.40435 4.07304,21.56971 0.12875,0.9114 0.25758,1.8228 0.38637,2.73419 0,0 -40.54921,20.97409 -40.54921,20.97409 l 0,0 c 0.0251,-0.75726 0.0502,-1.51452 0.0751,-2.27177 -1.37706,-7.21887 -3.44736,-14.28371 -4.36745,-21.58819 0,0 40.38209,-21.41803 40.38209,-21.41803 z"
       inkscape:connector-curvature="0" />
    <path
       style="opacity:1;fill:#10bded;fill-opacity:1;fill-rule:evenodd;stroke:none;stroke-width:4;stroke-linecap:butt;stroke-linejoin:round;stroke-miterlimit:4;stroke-dasharray:none;stroke-dashoffset:0;stroke-opacity:1"
       id="path5838"
       d="m 323.4561,880.3952 c 0.65464,5.22948 1.30389,10.44246 1.52138,15.7092 0,0 -40.43458,20.60901 -40.43458,20.60901 l 0,0 c 0.20693,-5.02663 -0.44747,-9.97186 -1.46889,-14.90017 0,0 40.38209,-21.41804 40.38209,-21.41804 z"
       inkscape:connector-curvature="0" />
    <path
       style="opacity:1;fill:#10bded;fill-opacity:1;fill-rule:evenodd;stroke:none;stroke-width:4;stroke-linecap:butt;stroke-linejoin:round;stroke-miterlimit:4;stroke-dasharray:none;stroke-dashoffset:0;stroke-opacity:1"
       id="path5840"
       d="m 320.18483,868.41161 c -0.18095,3.88203 -0.17252,7.76916 -0.18822,11.65423 0,0 -40.35979,20.55962 -40.35979,20.55962 l 0,0 c -0.0147,-3.82111 -0.005,-7.6445 -0.18824,-11.46246 0,0 40.73625,-20.75139 40.73625,-20.75139 z"
       inkscape:connector-curvature="0" />
  </g>
</svg>
