<?xml version="1.0"?><svg width="793.6999999999999" height="1122.5205882352938" xmlns="http://www.w3.org/2000/svg" version="1.1">
 <title>cause i canntntnt</title>

 <metadata id="metadata4">image/svg+xml</metadata>
 <g>
  <title>Layer 1</title>
  <g id="layer1">
   <g transform="matrix(5.02716 0 0 5.02716 -2171.03 -2765.49)" id="g5798">
    <path d="m550.843994,599.862976c-0.001038,14.004028 -12.632996,25.356995 -28.216003,25.356018c-15.582031,0 -28.213043,-11.352966 -28.213043,-25.357971c0.001007,-14.004028 12.632996,-25.356018 28.215057,-25.356018c15.582947,0 28.213989,11.354004 28.213989,25.357971" fill="#63b3d3" id="path5796"/>
    <g transform="matrix(0.902363 0 0 0.902363 71.6878 73.0668)" id="g5051">
     <path d="m489.070648,531.156006c-13.190002,0.013977 -26.654999,4.080994 -42.875,13.406982c-39.928009,22.954041 -26.915985,70.138 -3.531006,98.343018c23.384003,28.205994 73.531036,-2.625 73.531036,-2.625l-30.406036,119.625l56.468048,0.968994l10.531982,-207.375c-25.758972,-13.695007 -44.442017,-22.364014 -63.719025,-22.343994zm10.312012,28.25c34.345001,8.080994 27.256012,35.356995 11.093994,43.437988c-16.161987,8.080994 -36.343994,1.015015 -36.343994,-19.187988c0,-20.203003 25.25,-24.25 25.25,-24.25z" fill="#63b3d3" id="path4720"/>
     <path filter=" url(#filter4951)" d="m494.831665,619.26001c0,4.322998 -3.505005,7.828003 -7.82901,7.828003c-4.324005,0 -7.82901,-3.505005 -7.82901,-7.829041c0.001007,-4.323975 3.506012,-7.828979 7.82901,-7.827942c4.324005,0 7.82901,3.504944 7.82901,7.828979" fill="#63b3d3" id="path4729"/>
     <path d="m451.899658,651.33197c0,0 25.253998,-2.020996 34.346008,-13.131958c9.090973,-11.112 1.009979,-20.203003 1.009979,-20.203003" fill="#63b3d3" id="path4727"/>
     <path d="m506.952942,571.025085c0,4.462952 -3.617981,8.080994 -8.080963,8.080994c-4.463013,-0.001038 -8.081024,-3.619019 -8.081024,-8.082031c0,-4.462952 3.618011,-8.080994 8.081024,-8.080994c4.463989,0 8.080963,3.619019 8.080963,8.082031" fill="#63b3d3" id="path4955"/>
     <path d="m502.912659,570.267029c0,2.09198 -1.696014,3.787964 -3.787994,3.787964c-2.09201,0 -3.788025,-1.695984 -3.788025,-3.787964c0,-2.092041 1.696014,-3.788025 3.788025,-3.788025c2.09198,0 3.787994,1.695984 3.787994,3.788025" fill="#63b3d3" id="path4957"/>
     <path d="m422.922668,573.075989l28.571991,7.143005" fill="#63b3d3" id="path4959"/>
     <path d="m428.637665,561.64801l20,5" fill="#63b3d3" id="path4961"/>
     <path d="m437.922668,548.075989l20,10.715027" fill="#63b3d3" id="path4963"/>
     <path d="m452.208649,540.934021l12.143005,11.427979" fill="#63b3d3" id="path4965"/>
     <path d="m464.351654,534.505005l13.571014,14.286011" fill="#63b3d3" id="path4967"/>
     <path d="m482.922668,530.934021l2.857971,13.570984" fill="#63b3d3" id="path4969"/>
     <path d="m495.78064,531.64801l-1.428986,11.427979" fill="#63b3d3" id="path4971"/>
     <path filter=" url(#filter5047)" d="m543.637695,643.075989l-5,112.858032l-42.857056,-0.715027c0,0 32.857056,0.715027 36.42804,-7.856995c3.572021,-8.570984 12.856995,-103.570984 11.429016,-104.286011z" fill="#63b3d3" id="path4973"/>
    </g>
   </g>
  </g>
  <ellipse ry="123.53" rx="111.765" cy="245.126" cx="452.732" stroke-width="5" stroke="#5db5d8" fill="#ffffff" id="svg_1"/>
  <ellipse ry="61.7644" rx="47.059" cy="430.421" cx="393.909" stroke-width="5" stroke-linejoin="null" stroke-linecap="null" stroke-dasharray="null" stroke="#5db5d8" fill="#5db5d8" id="svg_4"/>
  <rect height="475.539" width="36.8292" y="539.71" x="610.788" transform="rotate(4.85304 629.246 777.478)" stroke-width="5" stroke-linejoin="null" stroke-linecap="null" stroke-dasharray="null" stroke="#5db5d8" fill="#5db5d8" id="svg_6"/>
  <rect height="91.1765" width="194.118" y="942.185" x="438.027" stroke-width="5" stroke-linejoin="null" stroke-linecap="null" stroke-dasharray="null" stroke="#5db5d8" fill="#5db5d8" id="svg_7"/>
  <rect height="132.353" width="111.765" y="801.009" x="505.674" stroke-width="5" stroke-linejoin="null" stroke-linecap="null" stroke-dasharray="null" stroke="#5cb7db" fill="#5db5d8" id="svg_10"/>
 </g>
</svg>