<?xml version="1.0" encoding="UTF-8" standalone="no"?>
<!-- Created with Inkscape (http://www.inkscape.org/) -->

<svg
   xmlns:dc="http://purl.org/dc/elements/1.1/"
   xmlns:cc="http://creativecommons.org/ns#"
   xmlns:rdf="http://www.w3.org/1999/02/22-rdf-syntax-ns#"
   xmlns:svg="http://www.w3.org/2000/svg"
   xmlns="http://www.w3.org/2000/svg"
   xmlns:sodipodi="http://sodipodi.sourceforge.net/DTD/sodipodi-0.dtd"
   xmlns:inkscape="http://www.inkscape.org/namespaces/inkscape"
   width="210mm"
   height="297mm"
   id="svg4266"
   version="1.1"
   inkscape:version="0.91 r13725"
   sodipodi:docname="animal_number_13.svg">
  <defs
     id="defs3">
    <inkscape:perspective
       sodipodi:type="inkscape:persp3d"
       inkscape:vp_x="0 : 526.18109 : 1"
       inkscape:vp_y="0 : 1000 : 0"
       inkscape:vp_z="744.09448 : 526.18109 : 1"
       inkscape:persp3d-origin="372.04724 : 350.78739 : 1"
       id="perspective4272" />
    <inkscape:perspective
       id="perspective4282"
       inkscape:persp3d-origin="0.5 : 0.33333333 : 1"
       inkscape:vp_z="1 : 0.5 : 1"
       inkscape:vp_y="0 : 1000 : 0"
       inkscape:vp_x="0 : 0.5 : 1"
       sodipodi:type="inkscape:persp3d" />
  </defs>
  <sodipodi:namedview
     inkscape:document-units="mm"
     id="base"
     pagecolor="#ffffff"
     bordercolor="#666666"
     borderopacity="1.0"
     inkscape:pageopacity="0.0"
     inkscape:pageshadow="2"
     inkscape:zoom="0.98994949"
     inkscape:cx="171.29342"
     inkscape:cy="598.7181"
     inkscape:current-layer="layer1"
     showgrid="false"
     inkscape:window-width="1536"
     inkscape:window-height="803"
     inkscape:window-x="-8"
     inkscape:window-y="-8"
     inkscape:window-maximized="1" />
  <metadata
     id="metadata4">
    <rdf:RDF>
      <cc:Work
         rdf:about="">
        <dc:format>image/svg+xml</dc:format>
        <dc:type
           rdf:resource="http://purl.org/dc/dcmitype/StillImage" />
        <dc:title />
      </cc:Work>
    </rdf:RDF>
  </metadata>
  <g
     inkscape:label="Layer 1"
     inkscape:groupmode="layer"
     id="layer1">
    <g
       id="g4306"
       transform="matrix(0.98136186,0,0,1.0858736,24.089724,14.304164)">
      <g
         transform="matrix(1.175472,0,0,1.7337333,-7.410541,-238.98281)"
         id="g3226">
        <path
           inkscape:connector-curvature="0"
           style="fill:#ff2a2a;fill-rule:evenodd;stroke:none"
           d="m 154.28571,277.36218 c 0,0 -10,7.14286 -7.14285,17.85714 2.85714,10.71429 10.71428,9.28572 10.71428,13.57143 0,4.28572 -5.71428,8.57143 -5.71428,8.57143 0,0 10,-2.14286 10,-7.85714 0,-5.71429 8.57143,-0.71429 8.57143,-0.71429 0,0 -5.71429,-5.71428 -11.42858,-7.14285 -5.71428,-1.42858 -7.85714,-7.14286 -7.14285,-12.85715 0.71428,-5.71428 6.42857,-5.71428 6.42857,-5.71428 l -4.28572,-5.71429 z"
           id="path3159" />
        <path
           inkscape:connector-curvature="0"
           style="fill:#88aa00;fill-rule:evenodd;stroke:#668000;stroke-width:3;stroke-linecap:butt;stroke-linejoin:miter;stroke-miterlimit:4;stroke-dasharray:none;stroke-opacity:1"
           d="m 134.28571,250.93361 40,52.85714 40,-33.57143 -7.14285,146.42858 -54.28572,-5.71429 0,61.42857 161.42857,0 -10,-68.57143 L 260,409.50504 287.14286,213.79076 231.42857,195.21933 134.28571,250.93361 Z"
           id="path2383"
           sodipodi:nodetypes="cccccccccccc" />
        <circle
           r="18.571428"
           cy="223.07646"
           cx="216.42857"
           style="fill:#e6e6e6;fill-opacity:1;stroke:#668000;stroke-width:3;stroke-miterlimit:4;stroke-dasharray:none;stroke-dashoffset:0;stroke-opacity:1"
           id="path3155"
           transform="translate(-7.8571429,-12.857143)" />
        <circle
           r="18.571428"
           cy="223.07646"
           cx="216.42857"
           style="fill:#e6e6e6;fill-opacity:1;stroke:#668000;stroke-width:3;stroke-miterlimit:4;stroke-dasharray:none;stroke-dashoffset:0;stroke-opacity:1"
           id="path3157"
           transform="matrix(1.1779359,0,0,1.1779359,-7.7961385,-28.264744)" />
        <path
           inkscape:connector-curvature="0"
           style="fill:none;stroke:#668000;stroke-width:2;stroke-linecap:butt;stroke-linejoin:miter;stroke-miterlimit:4;stroke-dasharray:none;stroke-opacity:1"
           d="m 145.71429,243.79075 27.85714,34.28572"
           id="path3161" />
        <path
           inkscape:connector-curvature="0"
           style="fill:none;stroke:#668000;stroke-width:2;stroke-linecap:butt;stroke-linejoin:miter;stroke-miterlimit:4;stroke-dasharray:none;stroke-opacity:1"
           d="m 160.71429,234.50504 22.14285,30.71428"
           id="path3163" />
        <path
           inkscape:connector-curvature="0"
           style="fill:none;stroke:#668000;stroke-width:2;stroke-linecap:butt;stroke-linejoin:miter;stroke-miterlimit:4;stroke-dasharray:none;stroke-opacity:1"
           d="m 175.71429,226.6479 22.85714,28.57142"
           id="path3165" />
        <path
           inkscape:connector-curvature="0"
           style="fill:none;stroke:#668000;stroke-width:2;stroke-linecap:butt;stroke-linejoin:miter;stroke-miterlimit:4;stroke-dasharray:none;stroke-opacity:1"
           d="m 242.85714,287.36218 c 2.85715,0 35.71429,0 35.71429,0"
           id="path3167" />
        <path
           inkscape:connector-curvature="0"
           style="fill:none;stroke:#668000;stroke-width:2;stroke-linecap:butt;stroke-linejoin:miter;stroke-miterlimit:4;stroke-dasharray:none;stroke-opacity:1"
           d="m 249.28571,303.79075 25,-0.71428 0,0 0,0"
           id="path3169" />
        <path
           inkscape:connector-curvature="0"
           style="fill:none;stroke:#668000;stroke-width:2;stroke-linecap:butt;stroke-linejoin:miter;stroke-miterlimit:4;stroke-dasharray:none;stroke-opacity:1"
           d="m 236.42857,319.50504 37.14286,0"
           id="path3171" />
        <path
           inkscape:connector-curvature="0"
           style="fill:none;stroke:#668000;stroke-width:2;stroke-linecap:butt;stroke-linejoin:miter;stroke-miterlimit:4;stroke-dasharray:none;stroke-opacity:1"
           d="m 241.42857,335.21932 29.28572,1.42858"
           id="path3173" />
        <path
           inkscape:connector-curvature="0"
           style="fill:none;stroke:#668000;stroke-width:2;stroke-linecap:butt;stroke-linejoin:miter;stroke-miterlimit:4;stroke-dasharray:none;stroke-opacity:1"
           d="m 235,350.93361 c 3.57143,0 34.28571,0.71429 34.28571,0.71429 l 0,0 0,0"
           id="path3175" />
        <path
           inkscape:connector-curvature="0"
           style="fill:none;stroke:#668000;stroke-width:2;stroke-linecap:butt;stroke-linejoin:miter;stroke-miterlimit:4;stroke-dasharray:none;stroke-opacity:1"
           d="m 243.57143,363.79075 24.28571,0"
           id="path3177" />
        <path
           inkscape:connector-curvature="0"
           style="fill:none;stroke:#668000;stroke-width:2;stroke-linecap:butt;stroke-linejoin:miter;stroke-miterlimit:4;stroke-dasharray:none;stroke-opacity:1"
           d="m 232.14286,380.93361 32.14285,-2.14286"
           id="path3179" />
        <path
           inkscape:connector-curvature="0"
           style="fill:none;stroke:#668000;stroke-width:2;stroke-linecap:butt;stroke-linejoin:miter;stroke-miterlimit:4;stroke-dasharray:none;stroke-opacity:1"
           d="m 238.57143,393.07647 22.14286,-0.71429"
           id="path3181" />
        <g
           id="g3189"
           transform="matrix(0.8514851,0,0,0.8514851,3.178926,9.3041433)">
          <circle
             r="9.8214283"
             cy="232.18361"
             cx="246.25"
             id="path3183"
             style="fill:#445500;fill-opacity:1;stroke:#222b00;stroke-width:2;stroke-miterlimit:4;stroke-dasharray:none;stroke-dashoffset:0;stroke-opacity:1" />
          <circle
             r="4.1071429"
             cy="232.18361"
             cx="246.25"
             id="path3185"
             style="fill:#222b00;fill-opacity:1;stroke:none" />
          <circle
             r="1.7857143"
             cy="228.79076"
             cx="249.64285"
             transform="translate(0,1.0714286)"
             id="path3187"
             style="fill:#cdde87;fill-opacity:1;stroke:none" />
        </g>
        <g
           id="g3194"
           transform="matrix(1.1485149,0,0,1.1485149,-31.21464,-31.268429)">
          <circle
             r="9.8214283"
             cy="232.18361"
             cx="246.25"
             id="path3196"
             style="fill:#445500;fill-opacity:1;stroke:#222b00;stroke-width:2;stroke-miterlimit:4;stroke-dasharray:none;stroke-dashoffset:0;stroke-opacity:1" />
          <circle
             r="4.1071429"
             cy="232.18361"
             cx="246.25"
             id="path3198"
             style="fill:#222b00;fill-opacity:1;stroke:none" />
          <circle
             r="1.7857143"
             cy="228.79076"
             cx="249.64285"
             transform="translate(0,1.0714286)"
             id="path3200"
             style="fill:#cdde87;fill-opacity:1;stroke:none" />
        </g>
        <path
           inkscape:connector-curvature="0"
           style="fill:none;stroke:#668000;stroke-width:2;stroke-linecap:butt;stroke-linejoin:miter;stroke-miterlimit:4;stroke-dasharray:none;stroke-opacity:1"
           d="m 297.6426,435.76636 c 0.0474,2.85675 0.59298,35.70937 0.59298,35.70937"
           id="path3202" />
        <path
           inkscape:connector-curvature="0"
           style="fill:none;stroke:#668000;stroke-width:2;stroke-linecap:butt;stroke-linejoin:miter;stroke-miterlimit:4;stroke-dasharray:none;stroke-opacity:1"
           d="m 281.32303,445.49727 1.12927,24.98469 0,0 0,0"
           id="path3204" />
        <path
           inkscape:connector-curvature="0"
           style="fill:none;stroke:#668000;stroke-width:2;stroke-linecap:butt;stroke-linejoin:miter;stroke-miterlimit:4;stroke-dasharray:none;stroke-opacity:1"
           d="m 265.64998,435.17565 0.61669,37.13774"
           id="path3206" />
        <path
           inkscape:connector-curvature="0"
           style="fill:none;stroke:#668000;stroke-width:2;stroke-linecap:butt;stroke-linejoin:miter;stroke-miterlimit:4;stroke-dasharray:none;stroke-opacity:1"
           d="m 249.76834,441.69856 -0.94214,29.3054"
           id="path3208" />
        <path
           inkscape:connector-curvature="0"
           id="path3218"
           d="m 221.88116,434.75621 c 0.0474,2.85675 0.59298,35.70937 0.59298,35.70937"
           style="fill:none;stroke:#668000;stroke-width:2;stroke-linecap:butt;stroke-linejoin:miter;stroke-miterlimit:4;stroke-dasharray:none;stroke-opacity:1" />
        <path
           inkscape:connector-curvature="0"
           id="path3220"
           d="m 205.56159,444.48712 1.12927,24.98469 0,0 0,0"
           style="fill:none;stroke:#668000;stroke-width:2;stroke-linecap:butt;stroke-linejoin:miter;stroke-miterlimit:4;stroke-dasharray:none;stroke-opacity:1" />
        <path
           inkscape:connector-curvature="0"
           id="path3222"
           d="m 189.88854,434.1655 0.61669,37.13774"
           style="fill:none;stroke:#668000;stroke-width:2;stroke-linecap:butt;stroke-linejoin:miter;stroke-miterlimit:4;stroke-dasharray:none;stroke-opacity:1" />
        <path
           inkscape:connector-curvature="0"
           id="path3224"
           d="m 174.0069,440.68841 -0.94214,29.3054"
           style="fill:none;stroke:#668000;stroke-width:2;stroke-linecap:butt;stroke-linejoin:miter;stroke-miterlimit:4;stroke-dasharray:none;stroke-opacity:1" />
      </g>
      <g
         transform="matrix(1.6742933,0,0,2.1243267,-309.45175,1.269855)"
         id="g3594">
        <path
           inkscape:connector-curvature="0"
           style="fill:#f4d7d7;fill-rule:evenodd;stroke:#d35f5f;stroke-width:1px;stroke-linecap:butt;stroke-linejoin:miter;stroke-opacity:1"
           d="m 450.75243,119.99916 9.28571,11.42857 28.57143,-11.07143 c 0,0 -3.92857,-9.28571 -20.35714,-8.92857 -16.42858,0.35715 -17.5,8.21429 -17.5,8.57143 z"
           id="path3474" />
        <path
           inkscape:connector-curvature="0"
           style="fill:#f4d7d7;fill-rule:evenodd;stroke:#d35f5f;stroke-width:1px;stroke-linecap:butt;stroke-linejoin:miter;stroke-opacity:1"
           d="m 468.25243,148.92773 0.71428,-9.28571 27.14286,1.42857 0.35714,0.35714 c 0,0 2.14286,11.42857 -8.57143,11.78572 -10.71428,0.35714 -19.64285,-4.28572 -19.64285,-4.28572 z"
           id="path3476" />
        <path
           inkscape:connector-curvature="0"
           style="fill:#c83737;fill-rule:evenodd;stroke:#a02c2c;stroke-width:3;stroke-linecap:butt;stroke-linejoin:miter;stroke-miterlimit:4;stroke-dasharray:none;stroke-opacity:1"
           d="m 410.12194,89.68681 13.13198,43.43656 c 0,0 52.03243,-32.44539 66.67007,-11.11168 30.20305,44.01958 -45.54968,23.35607 -45.54968,23.35607 l 2.43873,35.5794 c 0,0 66.93619,-22.54024 70.38507,13.79551 1.8236,19.21259 -23.42599,33.79199 -41.41626,29.29443 -28.28427,-7.07107 -38.38579,-27.27412 -38.38579,-27.27412 l -37.37565,32.32488 c 0,0 12.12183,47.47717 91.92388,45.45687 79.80205,-2.02031 82.83251,-91.92389 76.7716,-109.09648 -6.06092,-17.17259 -26.26397,-21.2132 -26.26397,-21.2132 0,0 10.10153,-11.11168 10.10153,-34.34519 0,-23.23351 -15.15229,-48.48732 -57.5787,-57.57869 -42.4264,-9.09138 -84.85281,38.38579 -84.85281,37.37564 z"
           id="path3456"
           sodipodi:nodetypes="ccsccssccsscssc" />
        <circle
           r="16.162441"
           cy="401.82394"
           cx="263.64981"
           style="fill:#f4d7d7;fill-opacity:1;stroke:#a02c2c;stroke-width:3;stroke-miterlimit:4;stroke-dasharray:none;stroke-dashoffset:0;stroke-opacity:1"
           id="path3458"
           transform="translate(243.44677,-304.05592)" />
        <circle
           r="27.274118"
           cy="363.43814"
           cx="188.89853"
           style="fill:#f4d7d7;fill-opacity:1;stroke:#a02c2c;stroke-width:3;stroke-miterlimit:4;stroke-dasharray:none;stroke-dashoffset:0;stroke-opacity:1"
           id="path3460"
           transform="translate(271.73104,-284.86302)" />
        <circle
           r="12.626906"
           cy="364.95337"
           cx="213.64726"
           style="fill:#501616;fill-opacity:1;stroke:none"
           id="path3462"
           transform="translate(252.53814,-284.86302)" />
        <circle
           r="12.626906"
           cy="364.95337"
           cx="213.64726"
           id="path3464"
           style="fill:#501616;fill-opacity:1;stroke:none"
           transform="matrix(0.76,0,0,0.76,341.6942,-181.11177)" />
        <circle
           r="4.1071429"
           cy="364.50504"
           cx="215.35715"
           style="fill:#280b0b;fill-opacity:1;stroke:none"
           id="path3466"
           transform="matrix(1.4130435,0,0,1.4130435,163.13985,-434.43731)" />
        <circle
           r="4.1071429"
           cy="364.50504"
           cx="215.35715"
           transform="matrix(1.4130435,0,0,1.4130435,197.96128,-419.08017)"
           id="path3468"
           style="fill:#280b0b;fill-opacity:1;stroke:none" />
        <circle
           r="2.1428571"
           cy="362.89789"
           cx="219.64285"
           style="fill:#e9afaf;fill-opacity:1;stroke:none"
           id="path3470"
           transform="translate(252.53814,-284.86302)" />
        <circle
           r="2.1428571"
           cy="362.89789"
           cx="219.64285"
           id="path3472"
           style="fill:#ffd5d5;fill-opacity:1;stroke:none"
           transform="translate(287.89528,-268.43445)" />
        <circle
           r="17.5"
           cy="522.7193"
           cx="187.5"
           style="fill:#a02c2c;fill-opacity:1;stroke:none"
           id="path3478"
           transform="translate(252.53814,-282.00588)" />
        <circle
           r="17.5"
           cy="522.7193"
           cx="187.5"
           id="path3480"
           style="fill:#a02c2c;fill-opacity:1;stroke:none"
           transform="matrix(0.5510204,0,0,0.5510204,371.00752,-50.88701)" />
        <circle
           r="17.5"
           cy="522.7193"
           cx="187.5"
           transform="matrix(0.7959184,0,0,0.7959184,347.9463,-160.32847)"
           style="fill:#a02c2c;fill-opacity:1;stroke:none"
           id="path3482" />
        <circle
           r="17.5"
           cy="522.7193"
           cx="187.5"
           id="path3484"
           style="fill:#a02c2c;fill-opacity:1;stroke:none"
           transform="matrix(0.7959184,0,0,0.7959184,366.51773,-185.32847)" />
        <circle
           r="17.5"
           cy="522.7193"
           cx="187.5"
           transform="matrix(0.4489796,0,0,0.4489796,382.64018,23.52312)"
           style="fill:#a02c2c;fill-opacity:1;stroke:none"
           id="path3486" />
        <circle
           r="17.5"
           cy="522.7193"
           cx="187.5"
           id="path3488"
           style="fill:#a02c2c;fill-opacity:1;stroke:none"
           transform="matrix(0.4489796,0,0,0.4489796,352.64018,-22.19117)" />
        <circle
           r="17.5"
           cy="522.7193"
           cx="187.5"
           transform="matrix(0.4285715,0,0,0.4285715,442.53814,29.54801)"
           style="fill:#a02c2c;fill-opacity:1;stroke:none"
           id="path3490" />
        <circle
           r="17.5"
           cy="522.7193"
           cx="187.5"
           id="path3492"
           style="fill:#a02c2c;fill-opacity:1;stroke:none"
           transform="matrix(0.7551021,0,0,0.7551021,403.4565,-176.13584)" />
        <circle
           r="17.5"
           cy="522.7193"
           cx="187.5"
           transform="matrix(0.367347,0,0,0.367347,460.08916,4.05123)"
           style="fill:#a02c2c;fill-opacity:1;stroke:none"
           id="path3494" />
        <circle
           r="17.5"
           cy="522.7193"
           cx="187.5"
           id="path3496"
           style="fill:#a02c2c;fill-opacity:1;stroke:none"
           transform="matrix(0.7959184,0,0,0.7959184,402.94631,-231.04276)" />
        <circle
           r="17.5"
           cy="522.7193"
           cx="187.5"
           transform="matrix(0.7959184,0,0,0.7959184,375.08917,-250.32847)"
           style="fill:#a02c2c;fill-opacity:1;stroke:none"
           id="path3498" />
        <circle
           r="17.5"
           cy="522.7193"
           cx="187.5"
           id="path3500"
           style="fill:#a02c2c;fill-opacity:1;stroke:none"
           transform="matrix(0.367347,0,0,0.367347,480.08916,-33.09163)" />
        <circle
           r="17.5"
           cy="522.7193"
           cx="187.5"
           id="path3502"
           style="fill:#a02c2c;fill-opacity:1;stroke:none"
           transform="matrix(0.8979592,0,0,0.8979592,348.45652,-336.88146)" />
        <circle
           r="17.5"
           cy="522.7193"
           cx="187.5"
           transform="matrix(0.367347,0,0,0.367347,470.80345,-73.09163)"
           style="fill:#a02c2c;fill-opacity:1;stroke:none"
           id="path3504" />
        <circle
           r="17.5"
           cy="522.7193"
           cx="187.5"
           id="path3506"
           style="fill:#a02c2c;fill-opacity:1;stroke:none"
           transform="matrix(0.5306123,0,0,0.5306123,438.04835,-177.71927)" />
        <circle
           r="17.5"
           cy="522.7193"
           cx="187.5"
           transform="matrix(0.5306123,0,0,0.5306123,402.33406,-209.86213)"
           style="fill:#a02c2c;fill-opacity:1;stroke:none"
           id="path3508" />
        <circle
           r="17.5"
           cy="522.7193"
           cx="187.5"
           id="path3510"
           style="fill:#a02c2c;fill-opacity:1;stroke:none"
           transform="matrix(0.367347,0,0,0.367347,455.08916,-114.5202)" />
        <circle
           r="17.5"
           cy="522.7193"
           cx="187.5"
           transform="matrix(0.7142857,0,0,0.7142857,298.96673,-263.37179)"
           style="fill:#a02c2c;fill-opacity:1;stroke:none"
           id="path3512" />
        <circle
           r="17.5"
           cy="522.7193"
           cx="187.5"
           id="path3514"
           style="fill:#a02c2c;fill-opacity:1;stroke:none"
           transform="matrix(0.3061224,0,0,0.3061224,368.35448,-71.44554)" />
        <circle
           r="17.5"
           cy="522.7193"
           cx="187.5"
           id="path3516"
           style="fill:#a02c2c;fill-opacity:1;stroke:none"
           transform="matrix(0.5102041,0,0,0.5102041,364.37488,-104.55152)" />
        <circle
           r="17.5"
           cy="522.7193"
           cx="187.5"
           transform="matrix(0.367347,0,0,0.367347,410.80345,-29.5202)"
           style="fill:#a02c2c;fill-opacity:1;stroke:none"
           id="path3518" />
        <circle
           r="17.5"
           cy="522.7193"
           cx="187.5"
           id="path3520"
           style="fill:#a02c2c;fill-opacity:1;stroke:none"
           transform="matrix(0.244898,0,0,0.244898,455.1912,23.77196)" />
        <circle
           r="17.5"
           cy="522.7193"
           cx="187.5"
           transform="matrix(0.3877551,0,0,0.3877551,425.90549,-39.8308)"
           style="fill:#a02c2c;fill-opacity:1;stroke:none"
           id="path3522" />
      </g>
    </g>
  </g>
</svg>
