<?xml version="1.0" encoding="UTF-8" standalone="no"?>
<!-- Created with Inkscape (http://www.inkscape.org/) -->

<svg
   xmlns:dc="http://purl.org/dc/elements/1.1/"
   xmlns:cc="http://creativecommons.org/ns#"
   xmlns:rdf="http://www.w3.org/1999/02/22-rdf-syntax-ns#"
   xmlns:svg="http://www.w3.org/2000/svg"
   xmlns="http://www.w3.org/2000/svg"
   xmlns:sodipodi="http://sodipodi.sourceforge.net/DTD/sodipodi-0.dtd"
   xmlns:inkscape="http://www.inkscape.org/namespaces/inkscape"
   width="210mm"
   height="297mm"
   id="svg4266"
   version="1.1"
   inkscape:version="0.91 r13725"
   sodipodi:docname="animal_number_7.svg">
  <defs
     id="defs3">
    <inkscape:perspective
       sodipodi:type="inkscape:persp3d"
       inkscape:vp_x="0 : 526.18109 : 1"
       inkscape:vp_y="0 : 1000 : 0"
       inkscape:vp_z="744.09448 : 526.18109 : 1"
       inkscape:persp3d-origin="372.04724 : 350.78739 : 1"
       id="perspective4272" />
    <inkscape:perspective
       id="perspective4282"
       inkscape:persp3d-origin="0.5 : 0.33333333 : 1"
       inkscape:vp_z="1 : 0.5 : 1"
       inkscape:vp_y="0 : 1000 : 0"
       inkscape:vp_x="0 : 0.5 : 1"
       sodipodi:type="inkscape:persp3d" />
    <inkscape:perspective
       id="perspective4397"
       inkscape:persp3d-origin="0.5 : 0.33333333 : 1"
       inkscape:vp_z="1 : 0.5 : 1"
       inkscape:vp_y="0 : 1000 : 0"
       inkscape:vp_x="0 : 0.5 : 1"
       sodipodi:type="inkscape:persp3d" />
    <inkscape:perspective
       id="perspective4476"
       inkscape:persp3d-origin="0.5 : 0.33333333 : 1"
       inkscape:vp_z="1 : 0.5 : 1"
       inkscape:vp_y="0 : 1000 : 0"
       inkscape:vp_x="0 : 0.5 : 1"
       sodipodi:type="inkscape:persp3d" />
    <inkscape:perspective
       id="perspective4615"
       inkscape:persp3d-origin="0.5 : 0.33333333 : 1"
       inkscape:vp_z="1 : 0.5 : 1"
       inkscape:vp_y="0 : 1000 : 0"
       inkscape:vp_x="0 : 0.5 : 1"
       sodipodi:type="inkscape:persp3d" />
    <inkscape:perspective
       id="perspective4739"
       inkscape:persp3d-origin="0.5 : 0.33333333 : 1"
       inkscape:vp_z="1 : 0.5 : 1"
       inkscape:vp_y="0 : 1000 : 0"
       inkscape:vp_x="0 : 0.5 : 1"
       sodipodi:type="inkscape:persp3d" />
    <inkscape:perspective
       id="perspective4824"
       inkscape:persp3d-origin="0.5 : 0.33333333 : 1"
       inkscape:vp_z="1 : 0.5 : 1"
       inkscape:vp_y="0 : 1000 : 0"
       inkscape:vp_x="0 : 0.5 : 1"
       sodipodi:type="inkscape:persp3d" />
    <inkscape:perspective
       id="perspective4897"
       inkscape:persp3d-origin="0.5 : 0.33333333 : 1"
       inkscape:vp_z="1 : 0.5 : 1"
       inkscape:vp_y="0 : 1000 : 0"
       inkscape:vp_x="0 : 0.5 : 1"
       sodipodi:type="inkscape:persp3d" />
    <inkscape:perspective
       id="perspective4997"
       inkscape:persp3d-origin="0.5 : 0.33333333 : 1"
       inkscape:vp_z="1 : 0.5 : 1"
       inkscape:vp_y="0 : 1000 : 0"
       inkscape:vp_x="0 : 0.5 : 1"
       sodipodi:type="inkscape:persp3d" />
    <inkscape:perspective
       id="perspective5070"
       inkscape:persp3d-origin="0.5 : 0.33333333 : 1"
       inkscape:vp_z="1 : 0.5 : 1"
       inkscape:vp_y="0 : 1000 : 0"
       inkscape:vp_x="0 : 0.5 : 1"
       sodipodi:type="inkscape:persp3d" />
  </defs>
  <sodipodi:namedview
     inkscape:document-units="mm"
     id="base"
     pagecolor="#ffffff"
     bordercolor="#666666"
     borderopacity="1.0"
     inkscape:pageopacity="0.0"
     inkscape:pageshadow="2"
     inkscape:zoom="0.98994949"
     inkscape:cx="248.81056"
     inkscape:cy="784.68883"
     inkscape:current-layer="layer1"
     showgrid="false"
     inkscape:window-width="1536"
     inkscape:window-height="803"
     inkscape:window-x="-8"
     inkscape:window-y="-8"
     inkscape:window-maximized="1" />
  <metadata
     id="metadata4">
    <rdf:RDF>
      <cc:Work
         rdf:about="">
        <dc:format>image/svg+xml</dc:format>
        <dc:type
           rdf:resource="http://purl.org/dc/dcmitype/StillImage" />
        <dc:title />
      </cc:Work>
    </rdf:RDF>
  </metadata>
  <g
     inkscape:label="Layer 1"
     inkscape:groupmode="layer"
     id="layer1">
    <g
       id="g4319"
       transform="matrix(2.1585726,0,0,2.6110759,85.768171,-1323.3622)">
      <path
         id="path4273"
         d="m 34.37046,556.97477 c 0,20.04843 6.682809,76.85231 6.682809,76.85231 l 120.290561,-33.41405 -43.43826,180.43583 76.8523,-3.3414 -5.01212,-222.20339 -155.37529,1.6707 z"
         style="fill:#ffb200;fill-opacity:1;fill-rule:evenodd;stroke:#aa8800;stroke-width:3;stroke-linecap:butt;stroke-linejoin:miter;stroke-miterlimit:4;stroke-dasharray:none;stroke-opacity:1"
         inkscape:connector-curvature="0" />
      <circle
         transform="translate(47.142857,-17.142858)"
         id="path4275"
         style="fill:#ffeeaa;fill-opacity:1;stroke:#aa8800;stroke-width:3;stroke-miterlimit:4;stroke-dasharray:none;stroke-dashoffset:0;stroke-opacity:1"
         cx="146.42857"
         cy="603.07648"
         r="23.571428" />
      <circle
         style="fill:#ffeeaa;fill-opacity:1;stroke:#aa8800;stroke-width:3;stroke-miterlimit:4;stroke-dasharray:none;stroke-dashoffset:0;stroke-opacity:1"
         id="path4277"
         transform="matrix(0.8005698,0,0,0.8005698,32.773709,76.700234)"
         cx="146.42857"
         cy="603.07648"
         r="23.571428" />
      <ellipse
         id="path4279"
         style="fill:#806600;fill-opacity:1;stroke:none"
         cx="45.357143"
         cy="589.50507"
         rx="3.9285715"
         ry="5" />
      <ellipse
         id="path4281"
         style="fill:#806600;fill-opacity:1;stroke:none"
         cx="57.142857"
         cy="586.29077"
         rx="4.2857141"
         ry="7.5" />
      <circle
         id="path4283"
         style="fill:#806600;fill-opacity:1;stroke:none"
         cx="195"
         cy="588.79077"
         r="12.857142" />
      <circle
         id="path4285"
         style="fill:#806600;fill-opacity:1;stroke:none"
         cx="151.78572"
         cy="559.14789"
         r="9.6428576" />
      <circle
         id="path4287"
         style="fill:#2b2200;fill-opacity:1;stroke:none"
         cx="195.71428"
         cy="587.36218"
         r="5" />
      <circle
         id="path4289"
         style="fill:#2b2200;fill-opacity:1;stroke:none"
         cx="152.14285"
         cy="558.79077"
         r="4.2857141" />
      <circle
         transform="matrix(1.75,0,0,1.75,-147.58928,-436.50376)"
         id="path4291"
         style="fill:#ffeeaa;fill-opacity:1;stroke:none"
         cx="198.21428"
         cy="583.43359"
         r="1.4285715" />
      <circle
         id="path4293"
         style="fill:#ffeeaa;fill-opacity:1;stroke:none"
         cx="154.28572"
         cy="555.2193"
         r="2.1428571" />
      <path
         id="path4295"
         d="M 109.28571,597.71932 115,613.79075"
         style="fill:none;stroke:#aa8800;stroke-width:2;stroke-linecap:butt;stroke-linejoin:miter;stroke-miterlimit:4;stroke-dasharray:none;stroke-opacity:1"
         inkscape:connector-curvature="0" />
      <path
         id="path4297"
         d="M 118.57143,599.1479 122.5,610.57647"
         style="fill:none;stroke:#aa8800;stroke-width:2;stroke-linecap:butt;stroke-linejoin:miter;stroke-miterlimit:4;stroke-dasharray:none;stroke-opacity:1"
         inkscape:connector-curvature="0" />
      <path
         id="path4299"
         d="m 125,590.93361 c 0,1.78571 5,17.14286 5,17.14286"
         style="fill:none;stroke:#aa8800;stroke-width:2;stroke-linecap:butt;stroke-linejoin:miter;stroke-miterlimit:4;stroke-dasharray:none;stroke-opacity:1"
         inkscape:connector-curvature="0" />
      <path
         id="path4301"
         d="m 134.64286,596.6479 3.92857,9.28571"
         style="fill:none;stroke:#aa8800;stroke-width:2;stroke-linecap:butt;stroke-linejoin:miter;stroke-miterlimit:4;stroke-dasharray:none;stroke-opacity:1"
         inkscape:connector-curvature="0" />
      <path
         id="path4303"
         d="m 143.57143,593.43361 3.57143,9.28571"
         style="fill:none;stroke:#aa8800;stroke-width:2;stroke-linecap:butt;stroke-linejoin:miter;stroke-miterlimit:4;stroke-dasharray:none;stroke-opacity:1"
         inkscape:connector-curvature="0" />
      <path
         id="path4305"
         d="m 97.5,602.71932 c 0.714286,1.42858 5,12.5 5,12.5"
         style="fill:none;stroke:#aa8800;stroke-width:2;stroke-linecap:butt;stroke-linejoin:miter;stroke-miterlimit:4;stroke-dasharray:none;stroke-opacity:1"
         inkscape:connector-curvature="0" />
      <path
         sodipodi:nodetypes="cs"
         id="path4307"
         d="m 81.822356,595.26815 c 0,0 14.142136,21.21321 -7.071068,29.29443"
         style="fill:none;stroke:#806600;stroke-width:3;stroke-linecap:butt;stroke-linejoin:miter;stroke-miterlimit:4;stroke-dasharray:none;stroke-opacity:1"
         inkscape:connector-curvature="0" />
      <path
         id="path4309"
         d="m 184.35284,638.70472 c 0,0 0.50508,-16.16245 -6.06092,-14.14214 -6.56599,2.0203 -4.54568,9.09137 -10.6066,15.65736 -6.06091,6.566 -1.01015,21.71828 7.57615,18.68783 8.58629,-3.03046 2.52538,-5.05077 5.05076,-8.5863 2.52538,-3.53553 4.54569,-11.11168 4.04061,-11.61675 z"
         style="fill:#aa8800;fill-rule:evenodd;stroke:none"
         inkscape:connector-curvature="0" />
      <path
         id="path4311"
         d="m 150.51273,676.08036 c 0,0 1.51523,-8.08122 9.59645,-0.50508 8.08122,7.57614 2.52538,11.61675 1.51523,19.69797 -1.01016,8.08122 7.07106,11.61676 1.51522,20.70813 -5.55583,9.09137 4.04061,15.65737 -15.15228,10.6066 -19.1929,-5.05076 -6.06092,-20.70812 -6.06092,-20.70812 l 8.5863,-29.7995 z"
         style="fill:#aa8800;fill-rule:evenodd;stroke:none"
         inkscape:connector-curvature="0" />
      <path
         id="path4313"
         d="m 184.35284,683.15143 c 0,0 2.0203,-6.56599 1.01015,-10.6066 -1.01015,-4.04061 2.02031,-8.08123 -8.58629,-6.566 -10.60661,1.51523 -13.13199,4.04061 -9.59645,9.09138 3.53553,5.05076 1.01015,6.06091 1.01015,12.6269 0,6.566 4.04061,20.70813 10.10152,16.16244 6.06092,-4.54568 3.53554,-5.05076 4.04061,-9.59644 0.50508,-4.54569 1.51523,-11.11168 2.02031,-11.11168 z"
         style="fill:#aa8800;fill-rule:evenodd;stroke:none"
         inkscape:connector-curvature="0" />
      <path
         id="path4315"
         d="m 180.81731,766.99409 c 1.51522,-3.03046 8.58629,-9.59645 8.08122,-19.69798 -0.50508,-10.10152 -4.04061,-12.12183 -5.55584,-18.18274 -1.51523,-6.06092 6.06091,-6.06092 1.01015,-13.13199 -5.05076,-7.07106 -13.63706,-14.14213 -14.14214,-6.56599 -0.50507,7.57615 5.05077,3.03046 -1.01015,13.13199 -6.06091,10.10152 -6.06091,4.04061 -10.10152,15.65736 -4.04061,11.61676 -1.01016,11.61676 0.50507,16.16244 1.51523,4.54569 -6.56599,10.10153 -0.50507,14.64721 6.06091,4.54569 22.22335,-0.50507 21.71828,-2.0203 z"
         style="fill:#aa8800;fill-rule:evenodd;stroke:none"
         inkscape:connector-curvature="0" />
      <path
         sodipodi:nodetypes="csssssssc"
         id="path4317"
         d="m 135.36044,731.13367 c 2.02031,0 6.56599,-6.56599 11.61676,-0.50507 5.05076,6.06091 0.50507,9.59645 4.04061,14.64721 3.53553,5.05076 8.58629,6.56599 2.52538,13.13198 -6.06092,6.56599 -7.57615,6.06092 -9.09138,11.11168 -1.51522,5.05076 -8.08122,7.07107 -14.14213,6.56599 -6.06092,-0.50507 -8.08122,-9.09137 -1.51523,-13.13198 6.56599,-4.04061 6.56599,-7.07107 5.05076,-14.14214 -1.51523,-7.07107 1.01016,-17.67767 1.51523,-17.67767 z"
         style="fill:#aa8800;fill-rule:evenodd;stroke:none"
         inkscape:connector-curvature="0" />
    </g>
  </g>
</svg>
