<?xml version="1.0" encoding="UTF-8" standalone="no"?>
<!-- Created with Inkscape (http://www.inkscape.org/) -->

<svg
   xmlns:dc="http://purl.org/dc/elements/1.1/"
   xmlns:cc="http://creativecommons.org/ns#"
   xmlns:rdf="http://www.w3.org/1999/02/22-rdf-syntax-ns#"
   xmlns:svg="http://www.w3.org/2000/svg"
   xmlns="http://www.w3.org/2000/svg"
   xmlns:sodipodi="http://sodipodi.sourceforge.net/DTD/sodipodi-0.dtd"
   xmlns:inkscape="http://www.inkscape.org/namespaces/inkscape"
   width="210mm"
   height="297mm"
   id="svg4266"
   version="1.1"
   inkscape:version="0.91 r13725"
   sodipodi:docname="animal_number_15.svg">
  <defs
     id="defs3">
    <inkscape:perspective
       sodipodi:type="inkscape:persp3d"
       inkscape:vp_x="0 : 526.18109 : 1"
       inkscape:vp_y="0 : 1000 : 0"
       inkscape:vp_z="744.09448 : 526.18109 : 1"
       inkscape:persp3d-origin="372.04724 : 350.78739 : 1"
       id="perspective4272" />
    <inkscape:perspective
       id="perspective4282"
       inkscape:persp3d-origin="0.5 : 0.33333333 : 1"
       inkscape:vp_z="1 : 0.5 : 1"
       inkscape:vp_y="0 : 1000 : 0"
       inkscape:vp_x="0 : 0.5 : 1"
       sodipodi:type="inkscape:persp3d" />
  </defs>
  <sodipodi:namedview
     inkscape:document-units="mm"
     id="base"
     pagecolor="#ffffff"
     bordercolor="#666666"
     borderopacity="1.0"
     inkscape:pageopacity="0.0"
     inkscape:pageshadow="2"
     inkscape:zoom="0.98994949"
     inkscape:cx="110.39179"
     inkscape:cy="684.76884"
     inkscape:current-layer="layer1"
     showgrid="false"
     inkscape:window-width="1536"
     inkscape:window-height="803"
     inkscape:window-x="-8"
     inkscape:window-y="-8"
     inkscape:window-maximized="1" />
  <metadata
     id="metadata4">
    <rdf:RDF>
      <cc:Work
         rdf:about="">
        <dc:format>image/svg+xml</dc:format>
        <dc:type
           rdf:resource="http://purl.org/dc/dcmitype/StillImage" />
        <dc:title />
      </cc:Work>
    </rdf:RDF>
  </metadata>
  <g
     inkscape:label="Layer 1"
     inkscape:groupmode="layer"
     id="layer1">
    <g
       id="g4294"
       transform="matrix(0.90439571,0,0,1.0550025,-0.51471525,15.750468)">
      <g
         transform="matrix(0.95405154,0,0,1.8215979,98.929894,-250.98346)"
         id="g3226">
        <path
           inkscape:connector-curvature="0"
           style="fill:#ff2a2a;fill-rule:evenodd;stroke:none"
           d="m 154.28571,277.36218 c 0,0 -10,7.14286 -7.14285,17.85714 2.85714,10.71429 10.71428,9.28572 10.71428,13.57143 0,4.28572 -5.71428,8.57143 -5.71428,8.57143 0,0 10,-2.14286 10,-7.85714 0,-5.71429 8.57143,-0.71429 8.57143,-0.71429 0,0 -5.71429,-5.71428 -11.42858,-7.14285 -5.71428,-1.42858 -7.85714,-7.14286 -7.14285,-12.85715 0.71428,-5.71428 6.42857,-5.71428 6.42857,-5.71428 l -4.28572,-5.71429 z"
           id="path3159" />
        <path
           inkscape:connector-curvature="0"
           style="fill:#88aa00;fill-rule:evenodd;stroke:#668000;stroke-width:3;stroke-linecap:butt;stroke-linejoin:miter;stroke-miterlimit:4;stroke-dasharray:none;stroke-opacity:1"
           d="m 134.28571,250.93361 40,52.85714 40,-33.57143 -7.14285,146.42858 -54.28572,-5.71429 0,61.42857 161.42857,0 -10,-68.57143 L 260,409.50504 287.14286,213.79076 231.42857,195.21933 134.28571,250.93361 Z"
           id="path2383"
           sodipodi:nodetypes="cccccccccccc" />
        <circle
           r="18.571428"
           cy="223.07646"
           cx="216.42857"
           style="fill:#e6e6e6;fill-opacity:1;stroke:#668000;stroke-width:3;stroke-miterlimit:4;stroke-dasharray:none;stroke-dashoffset:0;stroke-opacity:1"
           id="path3155"
           transform="translate(-7.8571429,-12.857143)" />
        <circle
           r="18.571428"
           cy="223.07646"
           cx="216.42857"
           style="fill:#e6e6e6;fill-opacity:1;stroke:#668000;stroke-width:3;stroke-miterlimit:4;stroke-dasharray:none;stroke-dashoffset:0;stroke-opacity:1"
           id="path3157"
           transform="matrix(1.1779359,0,0,1.1779359,-7.7961385,-28.264744)" />
        <path
           inkscape:connector-curvature="0"
           style="fill:none;stroke:#668000;stroke-width:2;stroke-linecap:butt;stroke-linejoin:miter;stroke-miterlimit:4;stroke-dasharray:none;stroke-opacity:1"
           d="m 145.71429,243.79075 27.85714,34.28572"
           id="path3161" />
        <path
           inkscape:connector-curvature="0"
           style="fill:none;stroke:#668000;stroke-width:2;stroke-linecap:butt;stroke-linejoin:miter;stroke-miterlimit:4;stroke-dasharray:none;stroke-opacity:1"
           d="m 160.71429,234.50504 22.14285,30.71428"
           id="path3163" />
        <path
           inkscape:connector-curvature="0"
           style="fill:none;stroke:#668000;stroke-width:2;stroke-linecap:butt;stroke-linejoin:miter;stroke-miterlimit:4;stroke-dasharray:none;stroke-opacity:1"
           d="m 175.71429,226.6479 22.85714,28.57142"
           id="path3165" />
        <path
           inkscape:connector-curvature="0"
           style="fill:none;stroke:#668000;stroke-width:2;stroke-linecap:butt;stroke-linejoin:miter;stroke-miterlimit:4;stroke-dasharray:none;stroke-opacity:1"
           d="m 242.85714,287.36218 c 2.85715,0 35.71429,0 35.71429,0"
           id="path3167" />
        <path
           inkscape:connector-curvature="0"
           style="fill:none;stroke:#668000;stroke-width:2;stroke-linecap:butt;stroke-linejoin:miter;stroke-miterlimit:4;stroke-dasharray:none;stroke-opacity:1"
           d="m 249.28571,303.79075 25,-0.71428 0,0 0,0"
           id="path3169" />
        <path
           inkscape:connector-curvature="0"
           style="fill:none;stroke:#668000;stroke-width:2;stroke-linecap:butt;stroke-linejoin:miter;stroke-miterlimit:4;stroke-dasharray:none;stroke-opacity:1"
           d="m 236.42857,319.50504 37.14286,0"
           id="path3171" />
        <path
           inkscape:connector-curvature="0"
           style="fill:none;stroke:#668000;stroke-width:2;stroke-linecap:butt;stroke-linejoin:miter;stroke-miterlimit:4;stroke-dasharray:none;stroke-opacity:1"
           d="m 241.42857,335.21932 29.28572,1.42858"
           id="path3173" />
        <path
           inkscape:connector-curvature="0"
           style="fill:none;stroke:#668000;stroke-width:2;stroke-linecap:butt;stroke-linejoin:miter;stroke-miterlimit:4;stroke-dasharray:none;stroke-opacity:1"
           d="m 235,350.93361 c 3.57143,0 34.28571,0.71429 34.28571,0.71429 l 0,0 0,0"
           id="path3175" />
        <path
           inkscape:connector-curvature="0"
           style="fill:none;stroke:#668000;stroke-width:2;stroke-linecap:butt;stroke-linejoin:miter;stroke-miterlimit:4;stroke-dasharray:none;stroke-opacity:1"
           d="m 243.57143,363.79075 24.28571,0"
           id="path3177" />
        <path
           inkscape:connector-curvature="0"
           style="fill:none;stroke:#668000;stroke-width:2;stroke-linecap:butt;stroke-linejoin:miter;stroke-miterlimit:4;stroke-dasharray:none;stroke-opacity:1"
           d="m 232.14286,380.93361 32.14285,-2.14286"
           id="path3179" />
        <path
           inkscape:connector-curvature="0"
           style="fill:none;stroke:#668000;stroke-width:2;stroke-linecap:butt;stroke-linejoin:miter;stroke-miterlimit:4;stroke-dasharray:none;stroke-opacity:1"
           d="m 238.57143,393.07647 22.14286,-0.71429"
           id="path3181" />
        <g
           id="g3189"
           transform="matrix(0.8514851,0,0,0.8514851,3.178926,9.3041433)">
          <circle
             r="9.8214283"
             cy="232.18361"
             cx="246.25"
             id="path3183"
             style="fill:#445500;fill-opacity:1;stroke:#222b00;stroke-width:2;stroke-miterlimit:4;stroke-dasharray:none;stroke-dashoffset:0;stroke-opacity:1" />
          <circle
             r="4.1071429"
             cy="232.18361"
             cx="246.25"
             id="path3185"
             style="fill:#222b00;fill-opacity:1;stroke:none" />
          <circle
             r="1.7857143"
             cy="228.79076"
             cx="249.64285"
             transform="translate(0,1.0714286)"
             id="path3187"
             style="fill:#cdde87;fill-opacity:1;stroke:none" />
        </g>
        <g
           id="g3194"
           transform="matrix(1.1485149,0,0,1.1485149,-31.21464,-31.268429)">
          <circle
             r="9.8214283"
             cy="232.18361"
             cx="246.25"
             id="path3196"
             style="fill:#445500;fill-opacity:1;stroke:#222b00;stroke-width:2;stroke-miterlimit:4;stroke-dasharray:none;stroke-dashoffset:0;stroke-opacity:1" />
          <circle
             r="4.1071429"
             cy="232.18361"
             cx="246.25"
             id="path3198"
             style="fill:#222b00;fill-opacity:1;stroke:none" />
          <circle
             r="1.7857143"
             cy="228.79076"
             cx="249.64285"
             transform="translate(0,1.0714286)"
             id="path3200"
             style="fill:#cdde87;fill-opacity:1;stroke:none" />
        </g>
        <path
           inkscape:connector-curvature="0"
           style="fill:none;stroke:#668000;stroke-width:2;stroke-linecap:butt;stroke-linejoin:miter;stroke-miterlimit:4;stroke-dasharray:none;stroke-opacity:1"
           d="m 297.6426,435.76636 c 0.0474,2.85675 0.59298,35.70937 0.59298,35.70937"
           id="path3202" />
        <path
           inkscape:connector-curvature="0"
           style="fill:none;stroke:#668000;stroke-width:2;stroke-linecap:butt;stroke-linejoin:miter;stroke-miterlimit:4;stroke-dasharray:none;stroke-opacity:1"
           d="m 281.32303,445.49727 1.12927,24.98469 0,0 0,0"
           id="path3204" />
        <path
           inkscape:connector-curvature="0"
           style="fill:none;stroke:#668000;stroke-width:2;stroke-linecap:butt;stroke-linejoin:miter;stroke-miterlimit:4;stroke-dasharray:none;stroke-opacity:1"
           d="m 265.64998,435.17565 0.61669,37.13774"
           id="path3206" />
        <path
           inkscape:connector-curvature="0"
           style="fill:none;stroke:#668000;stroke-width:2;stroke-linecap:butt;stroke-linejoin:miter;stroke-miterlimit:4;stroke-dasharray:none;stroke-opacity:1"
           d="m 249.76834,441.69856 -0.94214,29.3054"
           id="path3208" />
        <path
           inkscape:connector-curvature="0"
           id="path3218"
           d="m 221.88116,434.75621 c 0.0474,2.85675 0.59298,35.70937 0.59298,35.70937"
           style="fill:none;stroke:#668000;stroke-width:2;stroke-linecap:butt;stroke-linejoin:miter;stroke-miterlimit:4;stroke-dasharray:none;stroke-opacity:1" />
        <path
           inkscape:connector-curvature="0"
           id="path3220"
           d="m 205.56159,444.48712 1.12927,24.98469 0,0 0,0"
           style="fill:none;stroke:#668000;stroke-width:2;stroke-linecap:butt;stroke-linejoin:miter;stroke-miterlimit:4;stroke-dasharray:none;stroke-opacity:1" />
        <path
           inkscape:connector-curvature="0"
           id="path3222"
           d="m 189.88854,434.1655 0.61669,37.13774"
           style="fill:none;stroke:#668000;stroke-width:2;stroke-linecap:butt;stroke-linejoin:miter;stroke-miterlimit:4;stroke-dasharray:none;stroke-opacity:1" />
        <path
           inkscape:connector-curvature="0"
           id="path3224"
           d="m 174.0069,440.68841 -0.94214,29.3054"
           style="fill:none;stroke:#668000;stroke-width:2;stroke-linecap:butt;stroke-linejoin:miter;stroke-miterlimit:4;stroke-dasharray:none;stroke-opacity:1" />
      </g>
      <g
         transform="matrix(1.6410613,0,0,2.4113246,23.751033,-586.9345)"
         id="g3768">
        <g
           id="g3728"
           transform="translate(-0.5357143,6.25)">
          <circle
             r="13.928572"
             cy="314.86218"
             cx="347.5"
             transform="translate(26.785715,-0.5357143)"
             style="fill:#ffccaa;fill-opacity:1;stroke:#aa4400;stroke-width:3;stroke-miterlimit:4;stroke-dasharray:none;stroke-dashoffset:0;stroke-opacity:1"
             id="path3707" />
          <g
             transform="matrix(0.7444444,0,0,0.7444444,119.13095,79.004459)"
             id="g3720">
            <circle
               r="6.6071429"
               cy="317.89789"
               cx="353.03571"
               transform="matrix(1.2162162,0,0,1.2162162,-79.546329,-69.448963)"
               id="path3722"
               style="fill:#aa4400;fill-opacity:1;stroke:none" />
            <circle
               r="6.6071429"
               cy="317.89789"
               cx="353.03571"
               style="fill:#552200;fill-opacity:1;stroke:none"
               id="path3724"
               transform="matrix(0.7027027,0,0,0.7027027,101.92085,93.617326)" />
            <circle
               r="6.6071429"
               cy="317.89789"
               cx="353.03571"
               transform="matrix(0.3243243,0,0,0.3243243,238.00193,211.40301)"
               id="path3726"
               style="fill:#ffb380;fill-opacity:1;stroke:none" />
          </g>
        </g>
        <path
           inkscape:connector-curvature="0"
           style="fill:#ff6600;fill-rule:evenodd;stroke:#aa4400;stroke-width:3.63545132;stroke-linecap:butt;stroke-linejoin:miter;stroke-miterlimit:4;stroke-dasharray:none;stroke-opacity:1"
           d="m 369.78579,290.68835 1.42857,62.2623 -99.23953,-23.09285 -7.79025,46.74152 c 0,0 37.22011,-28.56426 73.57462,-12.11817 36.35451,16.44609 40.68242,54.53176 32.89217,86.55836 -7.79025,32.0266 -55.77875,50.63613 -81.36486,45.87593 -37.22009,-6.92466 -53.66619,-36.35451 -53.66619,-36.35451 l 36.724,-37.43829 c 0,0 -6.92956,41.07665 39.44736,28.78245 31.86631,-8.44753 28.58014,-31.65098 15.2932,-48.11218 -18.61928,-23.06744 -62.9003,10.0265 -62.9003,10.0265 l -30.29542,-21.63959 17.31166,-95.2142 118.58497,-6.27727 z"
           id="path3703"
           sodipodi:nodetypes="ccccsssccsscccc" />
        <g
           id="g3735">
          <circle
             r="13.928572"
             cy="314.86218"
             cx="347.5"
             transform="matrix(1.1157407,0,0,1.1157407,-42.005621,-34.656667)"
             id="path3705"
             style="fill:#ffccaa;fill-opacity:1;stroke:#aa4400;stroke-width:3;stroke-miterlimit:4;stroke-dasharray:none;stroke-dashoffset:0;stroke-opacity:1" />
          <g
             id="g3715">
            <circle
               r="6.6071429"
               cy="317.89789"
               cx="353.03571"
               style="fill:#aa4400;fill-opacity:1;stroke:none"
               id="path3709"
               transform="matrix(1.2162162,0,0,1.2162162,-79.546329,-69.448963)" />
            <circle
               r="6.6071429"
               cy="317.89789"
               cx="353.03571"
               transform="matrix(0.7027027,0,0,0.7027027,101.92085,93.617326)"
               id="path3711"
               style="fill:#552200;fill-opacity:1;stroke:none" />
            <circle
               r="6.6071429"
               cy="317.89789"
               cx="353.03571"
               style="fill:#ffb380;fill-opacity:1;stroke:none"
               id="path3713"
               transform="matrix(0.3243243,0,0,0.3243243,238.00193,211.40301)" />
          </g>
        </g>
        <path
           inkscape:connector-curvature="0"
           style="fill:none;stroke:#aa4400;stroke-width:2;stroke-linecap:butt;stroke-linejoin:miter;stroke-miterlimit:4;stroke-dasharray:none;stroke-opacity:1"
           d="m 276.7818,381.11582 c 0,0 -8.5863,8.08122 -3.03046,11.61675 5.55584,3.53553 13.63706,-5.05076 15.65736,-2.0203 2.02031,3.03045 1.01016,9.09137 1.01016,9.09137"
           id="path3742" />
        <path
           inkscape:connector-curvature="0"
           style="fill:none;stroke:#aa4400;stroke-width:2;stroke-linecap:butt;stroke-linejoin:miter;stroke-miterlimit:4;stroke-dasharray:none;stroke-opacity:1"
           d="m 302.54069,372.02444 c 0,0 -7.57615,6.06092 -3.53554,11.11168 4.04061,5.05076 6.566,-1.01015 10.10153,3.03046 3.53553,4.04061 1.01015,8.5863 1.01015,8.5863"
           id="path3744" />
        <path
           inkscape:connector-curvature="0"
           style="fill:none;stroke:#aa4400;stroke-width:2;stroke-linecap:butt;stroke-linejoin:miter;stroke-miterlimit:4;stroke-dasharray:none;stroke-opacity:1"
           d="m 330.31988,374.04475 c 0,0 -9.09137,0.50507 -8.58629,7.57614 0.50507,7.07107 9.09137,3.03046 8.58629,8.5863 -0.50507,5.55584 -8.08122,7.07107 -8.08122,7.07107"
           id="path3746" />
        <path
           inkscape:connector-curvature="0"
           style="fill:none;stroke:#aa4400;stroke-width:2;stroke-linecap:butt;stroke-linejoin:miter;stroke-miterlimit:4;stroke-dasharray:none;stroke-opacity:1"
           d="m 330.82496,407.37978 c 0,0 11.11168,0 13.13198,-4.04061 2.02031,-4.04061 -3.53553,-6.56599 -1.51523,-11.61675 2.02031,-5.05077 11.61676,-2.02031 11.61676,-2.02031"
           id="path3748" />
        <path
           inkscape:connector-curvature="0"
           style="fill:none;stroke:#aa4400;stroke-width:2;stroke-linecap:butt;stroke-linejoin:miter;stroke-miterlimit:4;stroke-dasharray:none;stroke-opacity:1"
           d="m 336.3808,422.02699 c 0,0 7.57614,2.52539 11.61675,0 4.04061,-2.52538 2.52538,-12.12183 8.5863,-12.12183 6.06091,0 7.57614,8.08122 7.57614,8.08122"
           id="path3750" />
        <path
           inkscape:connector-curvature="0"
           style="fill:none;stroke:#aa4400;stroke-width:2;stroke-linecap:butt;stroke-linejoin:miter;stroke-miterlimit:4;stroke-dasharray:none;stroke-opacity:1"
           d="m 333.85542,435.15898 c 0,0 3.03045,8.58629 8.58629,6.56599 5.55584,-2.02031 9.09138,-6.56599 14.64721,-4.54569 5.55584,2.02031 4.04062,10.6066 4.04062,10.6066"
           id="path3752" />
        <path
           inkscape:connector-curvature="0"
           style="fill:none;stroke:#aa4400;stroke-width:2;stroke-linecap:butt;stroke-linejoin:miter;stroke-miterlimit:4;stroke-dasharray:none;stroke-opacity:1"
           d="m 325.26912,445.76558 c 0,0 -7.57614,10.10152 1.01015,13.13198 8.5863,3.03046 6.56599,-5.55584 14.64721,-2.52538 8.08122,3.03046 3.03046,11.61675 3.03046,11.61675"
           id="path3754" />
        <path
           inkscape:connector-curvature="0"
           style="fill:none;stroke:#aa4400;stroke-width:2;stroke-linecap:butt;stroke-linejoin:miter;stroke-miterlimit:4;stroke-dasharray:none;stroke-opacity:1"
           d="m 305.57115,452.33157 c 0,0 -10.10153,7.57614 -1.51523,12.62691 8.58629,5.05076 11.61675,5.05076 11.61675,9.59645 0,4.54568 -12.12183,6.06091 -12.12183,6.06091"
           id="path3756" />
        <path
           inkscape:connector-curvature="0"
           style="fill:none;stroke:#aa4400;stroke-width:2;stroke-linecap:butt;stroke-linejoin:miter;stroke-miterlimit:4;stroke-dasharray:none;stroke-opacity:1"
           d="m 286.88332,451.82649 c 0,0 -10.10152,5.05077 -6.56599,10.60661 3.53554,5.55583 8.5863,4.54568 6.56599,9.09137 -2.0203,4.54569 -15.15229,2.52538 -15.15229,2.52538"
           id="path3758" />
        <path
           inkscape:connector-curvature="0"
           style="fill:none;stroke:#aa4400;stroke-width:2;stroke-linecap:butt;stroke-linejoin:miter;stroke-miterlimit:4;stroke-dasharray:none;stroke-opacity:1"
           d="m 275.26657,441.21989 c 0,0 -15.15229,2.02031 -14.14214,8.08122 1.01016,6.06092 5.05077,11.61676 2.52538,13.63706 -2.52538,2.02031 -12.12183,-2.52538 -12.12183,-2.52538"
           id="path3760" />
        <path
           inkscape:connector-curvature="0"
           style="fill:none;stroke:#aa4400;stroke-width:3;stroke-linecap:butt;stroke-linejoin:miter;stroke-miterlimit:4;stroke-dasharray:none;stroke-opacity:1"
           d="m 274.76149,312.93052 4.54569,18.68782"
           id="path3762" />
        <path
           inkscape:connector-curvature="0"
           style="fill:none;stroke:#aa4400;stroke-width:3;stroke-linecap:butt;stroke-linejoin:miter;stroke-miterlimit:4;stroke-dasharray:none;stroke-opacity:1"
           d="m 265.16504,318.99143 c 2.52538,3.53554 8.08122,10.10153 8.08122,10.10153"
           id="path3764" />
        <path
           inkscape:connector-curvature="0"
           style="fill:none;stroke:#aa4400;stroke-width:3;stroke-linecap:butt;stroke-linejoin:miter;stroke-miterlimit:4;stroke-dasharray:none;stroke-opacity:1"
           d="m 287.3884,312.42544 c -1.01015,3.03046 -3.03046,19.69798 -3.03046,19.69798"
           id="path3766" />
      </g>
    </g>
  </g>
</svg>
