<?xml version="1.0" encoding="UTF-8" standalone="no"?>
<!-- Created with Inkscape (http://www.inkscape.org/) -->

<svg
   xmlns:dc="http://purl.org/dc/elements/1.1/"
   xmlns:cc="http://creativecommons.org/ns#"
   xmlns:rdf="http://www.w3.org/1999/02/22-rdf-syntax-ns#"
   xmlns:svg="http://www.w3.org/2000/svg"
   xmlns="http://www.w3.org/2000/svg"
   xmlns:sodipodi="http://sodipodi.sourceforge.net/DTD/sodipodi-0.dtd"
   xmlns:inkscape="http://www.inkscape.org/namespaces/inkscape"
   width="210mm"
   height="297mm"
   id="svg4266"
   version="1.1"
   inkscape:version="0.91 r13725"
   sodipodi:docname="animal_number_10.svg">
  <defs
     id="defs3">
    <inkscape:perspective
       sodipodi:type="inkscape:persp3d"
       inkscape:vp_x="0 : 526.18109 : 1"
       inkscape:vp_y="0 : 1000 : 0"
       inkscape:vp_z="744.09448 : 526.18109 : 1"
       inkscape:persp3d-origin="372.04724 : 350.78739 : 1"
       id="perspective4272" />
    <inkscape:perspective
       id="perspective4282"
       inkscape:persp3d-origin="0.5 : 0.33333333 : 1"
       inkscape:vp_z="1 : 0.5 : 1"
       inkscape:vp_y="0 : 1000 : 0"
       inkscape:vp_x="0 : 0.5 : 1"
       sodipodi:type="inkscape:persp3d" />
    <filter
       style="color-interpolation-filters:sRGB"
       inkscape:collect="always"
       id="filter5109">
      <feGaussianBlur
         inkscape:collect="always"
         stdDeviation="2.5194836"
         id="feGaussianBlur5111" />
    </filter>
    <filter
       style="color-interpolation-filters:sRGB"
       inkscape:collect="always"
       id="filter5207"
       x="-0.17798477"
       width="1.3559695"
       y="-0.065937594"
       height="1.1318752">
      <feGaussianBlur
         inkscape:collect="always"
         stdDeviation="3.2587653"
         id="feGaussianBlur5209" />
    </filter>
  </defs>
  <sodipodi:namedview
     inkscape:document-units="mm"
     id="base"
     pagecolor="#ffffff"
     bordercolor="#666666"
     borderopacity="1.0"
     inkscape:pageopacity="0.0"
     inkscape:pageshadow="2"
     inkscape:zoom="0.98994949"
     inkscape:cx="234.05392"
     inkscape:cy="558.312"
     inkscape:current-layer="layer1"
     showgrid="false"
     inkscape:window-width="1536"
     inkscape:window-height="803"
     inkscape:window-x="-8"
     inkscape:window-y="-8"
     inkscape:window-maximized="1" />
  <metadata
     id="metadata4">
    <rdf:RDF>
      <cc:Work
         rdf:about="">
        <dc:format>image/svg+xml</dc:format>
        <dc:type
           rdf:resource="http://purl.org/dc/dcmitype/StillImage" />
        <dc:title />
      </cc:Work>
    </rdf:RDF>
  </metadata>
  <g
     inkscape:label="Layer 1"
     inkscape:groupmode="layer"
     id="layer1">
    <g
       id="g4215"
       transform="matrix(1.0363944,0,0,2.0578609,-9.7170579,-169.27027)">
      <g
         transform="matrix(1.027057,0,0,0.93495298,25.513542,-44.974406)"
         id="g3226">
        <path
           inkscape:connector-curvature="0"
           style="fill:#ff2a2a;fill-rule:evenodd;stroke:none"
           d="m 154.28571,277.36218 c 0,0 -10,7.14286 -7.14285,17.85714 2.85714,10.71429 10.71428,9.28572 10.71428,13.57143 0,4.28572 -5.71428,8.57143 -5.71428,8.57143 0,0 10,-2.14286 10,-7.85714 0,-5.71429 8.57143,-0.71429 8.57143,-0.71429 0,0 -5.71429,-5.71428 -11.42858,-7.14285 -5.71428,-1.42858 -7.85714,-7.14286 -7.14285,-12.85715 0.71428,-5.71428 6.42857,-5.71428 6.42857,-5.71428 l -4.28572,-5.71429 z"
           id="path3159" />
        <path
           inkscape:connector-curvature="0"
           style="fill:#88aa00;fill-rule:evenodd;stroke:#668000;stroke-width:3;stroke-linecap:butt;stroke-linejoin:miter;stroke-miterlimit:4;stroke-dasharray:none;stroke-opacity:1"
           d="m 134.28571,250.93361 40,52.85714 40,-33.57143 -7.14285,146.42858 -54.28572,-5.71429 0,61.42857 161.42857,0 -10,-68.57143 L 260,409.50504 287.14286,213.79076 231.42857,195.21933 134.28571,250.93361 Z"
           id="path2383"
           sodipodi:nodetypes="cccccccccccc" />
        <circle
           r="18.571428"
           cy="223.07646"
           cx="216.42857"
           style="fill:#e6e6e6;fill-opacity:1;stroke:#668000;stroke-width:3;stroke-miterlimit:4;stroke-dasharray:none;stroke-dashoffset:0;stroke-opacity:1"
           id="path3155"
           transform="translate(-7.8571429,-12.857143)" />
        <circle
           r="18.571428"
           cy="223.07646"
           cx="216.42857"
           style="fill:#e6e6e6;fill-opacity:1;stroke:#668000;stroke-width:3;stroke-miterlimit:4;stroke-dasharray:none;stroke-dashoffset:0;stroke-opacity:1"
           id="path3157"
           transform="matrix(1.1779359,0,0,1.1779359,-7.7961385,-28.264744)" />
        <path
           inkscape:connector-curvature="0"
           style="fill:none;stroke:#668000;stroke-width:2;stroke-linecap:butt;stroke-linejoin:miter;stroke-miterlimit:4;stroke-dasharray:none;stroke-opacity:1"
           d="m 145.71429,243.79075 27.85714,34.28572"
           id="path3161" />
        <path
           inkscape:connector-curvature="0"
           style="fill:none;stroke:#668000;stroke-width:2;stroke-linecap:butt;stroke-linejoin:miter;stroke-miterlimit:4;stroke-dasharray:none;stroke-opacity:1"
           d="m 160.71429,234.50504 22.14285,30.71428"
           id="path3163" />
        <path
           inkscape:connector-curvature="0"
           style="fill:none;stroke:#668000;stroke-width:2;stroke-linecap:butt;stroke-linejoin:miter;stroke-miterlimit:4;stroke-dasharray:none;stroke-opacity:1"
           d="m 175.71429,226.6479 22.85714,28.57142"
           id="path3165" />
        <path
           inkscape:connector-curvature="0"
           style="fill:none;stroke:#668000;stroke-width:2;stroke-linecap:butt;stroke-linejoin:miter;stroke-miterlimit:4;stroke-dasharray:none;stroke-opacity:1"
           d="m 242.85714,287.36218 c 2.85715,0 35.71429,0 35.71429,0"
           id="path3167" />
        <path
           inkscape:connector-curvature="0"
           style="fill:none;stroke:#668000;stroke-width:2;stroke-linecap:butt;stroke-linejoin:miter;stroke-miterlimit:4;stroke-dasharray:none;stroke-opacity:1"
           d="m 249.28571,303.79075 25,-0.71428 0,0 0,0"
           id="path3169" />
        <path
           inkscape:connector-curvature="0"
           style="fill:none;stroke:#668000;stroke-width:2;stroke-linecap:butt;stroke-linejoin:miter;stroke-miterlimit:4;stroke-dasharray:none;stroke-opacity:1"
           d="m 236.42857,319.50504 37.14286,0"
           id="path3171" />
        <path
           inkscape:connector-curvature="0"
           style="fill:none;stroke:#668000;stroke-width:2;stroke-linecap:butt;stroke-linejoin:miter;stroke-miterlimit:4;stroke-dasharray:none;stroke-opacity:1"
           d="m 241.42857,335.21932 29.28572,1.42858"
           id="path3173" />
        <path
           inkscape:connector-curvature="0"
           style="fill:none;stroke:#668000;stroke-width:2;stroke-linecap:butt;stroke-linejoin:miter;stroke-miterlimit:4;stroke-dasharray:none;stroke-opacity:1"
           d="m 235,350.93361 c 3.57143,0 34.28571,0.71429 34.28571,0.71429 l 0,0 0,0"
           id="path3175" />
        <path
           inkscape:connector-curvature="0"
           style="fill:none;stroke:#668000;stroke-width:2;stroke-linecap:butt;stroke-linejoin:miter;stroke-miterlimit:4;stroke-dasharray:none;stroke-opacity:1"
           d="m 243.57143,363.79075 24.28571,0"
           id="path3177" />
        <path
           inkscape:connector-curvature="0"
           style="fill:none;stroke:#668000;stroke-width:2;stroke-linecap:butt;stroke-linejoin:miter;stroke-miterlimit:4;stroke-dasharray:none;stroke-opacity:1"
           d="m 232.14286,380.93361 32.14285,-2.14286"
           id="path3179" />
        <path
           inkscape:connector-curvature="0"
           style="fill:none;stroke:#668000;stroke-width:2;stroke-linecap:butt;stroke-linejoin:miter;stroke-miterlimit:4;stroke-dasharray:none;stroke-opacity:1"
           d="m 238.57143,393.07647 22.14286,-0.71429"
           id="path3181" />
        <g
           id="g3189"
           transform="matrix(0.8514851,0,0,0.8514851,3.178926,9.3041433)">
          <circle
             r="9.8214283"
             cy="232.18361"
             cx="246.25"
             id="path3183"
             style="fill:#445500;fill-opacity:1;stroke:#222b00;stroke-width:2;stroke-miterlimit:4;stroke-dasharray:none;stroke-dashoffset:0;stroke-opacity:1" />
          <circle
             r="4.1071429"
             cy="232.18361"
             cx="246.25"
             id="path3185"
             style="fill:#222b00;fill-opacity:1;stroke:none" />
          <circle
             r="1.7857143"
             cy="228.79076"
             cx="249.64285"
             transform="translate(0,1.0714286)"
             id="path3187"
             style="fill:#cdde87;fill-opacity:1;stroke:none" />
        </g>
        <g
           id="g3194"
           transform="matrix(1.1485149,0,0,1.1485149,-31.21464,-31.268429)">
          <circle
             r="9.8214283"
             cy="232.18361"
             cx="246.25"
             id="path3196"
             style="fill:#445500;fill-opacity:1;stroke:#222b00;stroke-width:2;stroke-miterlimit:4;stroke-dasharray:none;stroke-dashoffset:0;stroke-opacity:1" />
          <circle
             r="4.1071429"
             cy="232.18361"
             cx="246.25"
             id="path3198"
             style="fill:#222b00;fill-opacity:1;stroke:none" />
          <circle
             r="1.7857143"
             cy="228.79076"
             cx="249.64285"
             transform="translate(0,1.0714286)"
             id="path3200"
             style="fill:#cdde87;fill-opacity:1;stroke:none" />
        </g>
        <path
           inkscape:connector-curvature="0"
           style="fill:none;stroke:#668000;stroke-width:2;stroke-linecap:butt;stroke-linejoin:miter;stroke-miterlimit:4;stroke-dasharray:none;stroke-opacity:1"
           d="m 297.6426,435.76636 c 0.0474,2.85675 0.59298,35.70937 0.59298,35.70937"
           id="path3202" />
        <path
           inkscape:connector-curvature="0"
           style="fill:none;stroke:#668000;stroke-width:2;stroke-linecap:butt;stroke-linejoin:miter;stroke-miterlimit:4;stroke-dasharray:none;stroke-opacity:1"
           d="m 281.32303,445.49727 1.12927,24.98469 0,0 0,0"
           id="path3204" />
        <path
           inkscape:connector-curvature="0"
           style="fill:none;stroke:#668000;stroke-width:2;stroke-linecap:butt;stroke-linejoin:miter;stroke-miterlimit:4;stroke-dasharray:none;stroke-opacity:1"
           d="m 265.64998,435.17565 0.61669,37.13774"
           id="path3206" />
        <path
           inkscape:connector-curvature="0"
           style="fill:none;stroke:#668000;stroke-width:2;stroke-linecap:butt;stroke-linejoin:miter;stroke-miterlimit:4;stroke-dasharray:none;stroke-opacity:1"
           d="m 249.76834,441.69856 -0.94214,29.3054"
           id="path3208" />
        <path
           inkscape:connector-curvature="0"
           id="path3218"
           d="m 221.88116,434.75621 c 0.0474,2.85675 0.59298,35.70937 0.59298,35.70937"
           style="fill:none;stroke:#668000;stroke-width:2;stroke-linecap:butt;stroke-linejoin:miter;stroke-miterlimit:4;stroke-dasharray:none;stroke-opacity:1" />
        <path
           inkscape:connector-curvature="0"
           id="path3220"
           d="m 205.56159,444.48712 1.12927,24.98469 0,0 0,0"
           style="fill:none;stroke:#668000;stroke-width:2;stroke-linecap:butt;stroke-linejoin:miter;stroke-miterlimit:4;stroke-dasharray:none;stroke-opacity:1" />
        <path
           inkscape:connector-curvature="0"
           id="path3222"
           d="m 189.88854,434.1655 0.61669,37.13774"
           style="fill:none;stroke:#668000;stroke-width:2;stroke-linecap:butt;stroke-linejoin:miter;stroke-miterlimit:4;stroke-dasharray:none;stroke-opacity:1" />
        <path
           inkscape:connector-curvature="0"
           id="path3224"
           d="m 174.0069,440.68841 -0.94214,29.3054"
           style="fill:none;stroke:#668000;stroke-width:2;stroke-linecap:butt;stroke-linejoin:miter;stroke-miterlimit:4;stroke-dasharray:none;stroke-opacity:1" />
      </g>
      <g
         transform="matrix(1.5859967,0,0,1.2049265,-136.61882,-845.37095)"
         id="g5241">
        <circle
           r="15"
           cy="979.50507"
           cx="341.42856"
           transform="matrix(0.8154982,0,0,0.8154982,43.508169,195.93729)"
           id="path5213"
           style="fill:#ffd5d5;fill-opacity:1;stroke:#a02c2c;stroke-width:3;stroke-miterlimit:4;stroke-dasharray:none;stroke-dashoffset:0;stroke-opacity:1" />
        <circle
           r="7.8571429"
           cy="985.93359"
           cx="347.85715"
           transform="matrix(0.8409091,0,0,0.8409091,26.233766,166.85307)"
           id="path5219"
           style="fill:#782121;fill-opacity:1;stroke:none" />
        <circle
           r="7.8571429"
           cy="985.93359"
           cx="347.85715"
           style="fill:#280b0b;fill-opacity:1;stroke:none"
           id="path5221"
           transform="matrix(0.401343,0,0,0.401343,179.13998,600.23606)" />
        <path
           inkscape:connector-curvature="0"
           style="fill:#ff5555;fill-rule:evenodd;stroke:#c83737;stroke-width:3;stroke-linecap:butt;stroke-linejoin:miter;stroke-miterlimit:4;stroke-dasharray:none;stroke-opacity:1"
           d="m 389.53125,813.96875 c -3.36408,0.0597 -6.60508,0.31684 -9.71875,0.5 0,0 -49.26265,11.73414 -59.8125,68 -10.54986,56.26587 -5.85103,99.6477 19.9375,130.12505 25.78851,30.4774 73.8531,29.3037 96.125,4.6874 22.2719,-24.61624 33.99066,-70.33983 11.71875,-139.49995 -18.79191,-58.35383 -40.08396,-64.1351 -58.25,-63.8125 z m 1.15625,65.125 c 6.27004,-0.2555 26.25919,6.9789 31.5625,30.84375 6.06092,27.27412 12.12023,62.62818 -6.0625,74.75 -18.18275,12.12183 -46.4797,8.07946 -48.5,-46.46875 -2.02031,-54.54823 19.19845,-56.06837 21.21875,-58.59375 0.25254,-0.31567 0.88553,-0.49475 1.78125,-0.53125 z"
           id="path5066" />
        <path
           inkscape:connector-curvature="0"
           style="fill:#ff8080;fill-rule:evenodd;stroke:none;filter:url(#filter5109)"
           d="m 360.71429,830.21933 c 0,0 -31.42858,16.42857 -35.71429,64.28571 -4.28571,47.85714 -2.14286,78.57143 13.57143,107.85716 15.71428,29.2857 51.42857,27.8571 51.42857,27.8571 0,0 -45,5.7143 -53.57143,-57.85712 -8.57143,-63.57143 5.71429,-105.71428 11.42857,-117.14285 5.71429,-11.42858 14.28572,-25 12.85715,-25 z"
           id="path5071" />
        <path
           inkscape:connector-curvature="0"
           style="fill:#c83737;fill-rule:evenodd;stroke:none;filter:url(#filter5207)"
           d="m 395,871.6479 c 0,0 23.57143,9.28571 30.71428,32.85714 7.14286,23.57143 9.28572,47.85714 7.85715,57.14286 -1.42857,9.28571 -6.42857,17.85714 -11.42857,20.71428 -5,2.85714 -13.57143,7.85714 -13.57143,7.85714 0,0 34.28571,3.57143 30,-55.71428 C 434.28571,875.21932 412.14286,873.07647 395,871.6479 Z"
           id="path5113" />
        <circle
           r="15"
           cy="979.50507"
           cx="341.42856"
           style="fill:#ffd5d5;fill-opacity:1;stroke:#a02c2c;stroke-width:3;stroke-miterlimit:4;stroke-dasharray:none;stroke-dashoffset:0;stroke-opacity:1"
           id="path5211"
           transform="matrix(0.95671,0,0,0.95671,21.923313,53.831385)" />
        <circle
           r="7.8571429"
           cy="985.93359"
           cx="347.85715"
           style="fill:#782121;fill-opacity:1;stroke:none"
           id="path5215"
           transform="translate(3.5714286,6.7857143)" />
        <circle
           r="7.8571429"
           cy="985.93359"
           cx="347.85715"
           transform="matrix(0.4772727,0,0,0.4772727,185.40585,522.16009)"
           id="path5217"
           style="fill:#280b0b;fill-opacity:1;stroke:none" />
        <path
           inkscape:connector-curvature="0"
           style="fill:none;stroke:#501616;stroke-width:3;stroke-linecap:butt;stroke-linejoin:miter;stroke-miterlimit:4;stroke-dasharray:none;stroke-opacity:1"
           d="m 346.42857,1019.505 c 0,0 15.71429,1.4286 22.85715,-5 7.14285,-6.4285 7.14285,-24.28567 7.14285,-24.28567 l 0.71429,-1.42858"
           id="path5223"
           sodipodi:nodetypes="cscc" />
        <path
           inkscape:connector-curvature="0"
           style="fill:none;stroke:#c83737;stroke-width:3;stroke-linecap:butt;stroke-linejoin:miter;stroke-miterlimit:4;stroke-dasharray:none;stroke-opacity:1"
           d="m 315,925.21933 c 0,0 22.14286,-2.85715 30.71429,-0.71429 8.57142,2.14286 12.14285,5 12.14285,5"
           id="path5225" />
        <path
           inkscape:connector-curvature="0"
           style="fill:none;stroke:#c83737;stroke-width:3;stroke-linecap:butt;stroke-linejoin:miter;stroke-miterlimit:4;stroke-dasharray:none;stroke-opacity:1"
           d="m 317.85714,905.93361 c 0,0 23.57143,-4.28571 31.42857,-2.14286 7.85715,2.14286 11.42858,5.71429 11.42858,5.71429"
           id="path5227" />
        <path
           inkscape:connector-curvature="0"
           style="fill:none;stroke:#c83737;stroke-width:3;stroke-linecap:butt;stroke-linejoin:miter;stroke-miterlimit:4;stroke-dasharray:none;stroke-opacity:1"
           d="m 321.42857,883.79075 c 0,0 25,-5 32.14286,-2.14285 7.14286,2.85714 8.57143,5 8.57143,5"
           id="path5229" />
        <path
           inkscape:connector-curvature="0"
           style="fill:none;stroke:#c83737;stroke-width:3;stroke-linecap:butt;stroke-linejoin:miter;stroke-miterlimit:4;stroke-dasharray:none;stroke-opacity:1"
           d="m 327.14286,861.6479 c 0,0 17.85714,-5.71429 24.28571,-5 6.42857,0.71428 15.71429,9.28571 15.71429,9.28571"
           id="path5231" />
        <path
           inkscape:connector-curvature="0"
           style="fill:none;stroke:#c83737;stroke-width:3;stroke-linecap:butt;stroke-linejoin:miter;stroke-miterlimit:4;stroke-dasharray:none;stroke-opacity:1"
           d="m 341.42857,840.93361 c 0,0 10,-9.28571 22.85714,-0.71428 12.85715,8.57142 14.28572,15.71428 14.28572,15.71428"
           id="path5233" />
        <path
           inkscape:connector-curvature="0"
           style="fill:none;stroke:#c83737;stroke-width:3;stroke-linecap:butt;stroke-linejoin:miter;stroke-miterlimit:4;stroke-dasharray:none;stroke-opacity:1"
           d="m 367.14286,820.93361 c 0,0 15,1.42857 22.14285,8.57143 7.14286,7.14286 7.14286,17.85714 7.14286,17.85714"
           id="path5235" />
        <path
           inkscape:connector-curvature="0"
           style="fill:none;stroke:#c83737;stroke-width:3;stroke-linecap:butt;stroke-linejoin:miter;stroke-miterlimit:4;stroke-dasharray:none;stroke-opacity:1"
           d="m 315.71429,948.79075 c 0,0 22.85714,-7.14285 30,-7.14285 7.14285,0 13.57142,7.14285 13.57142,7.14285"
           id="path5239" />
      </g>
    </g>
  </g>
</svg>
